<?xml version="1.0" encoding="utf-8" standalone="no"?>
<!DOCTYPE svg PUBLIC "-//W3C//DTD SVG 1.1//EN"
  "http://www.w3.org/Graphics/SVG/1.1/DTD/svg11.dtd">
<svg height="244.8pt" version="1.1" viewBox="0 0 244.8 244.8" width="244.8pt" xmlns="http://www.w3.org/2000/svg" xmlns:xlink="http://www.w3.org/1999/xlink">
 <metadata>
  <rdf:RDF xmlns:cc="http://creativecommons.org/ns#" xmlns:dc="http://purl.org/dc/elements/1.1/" xmlns:rdf="http://www.w3.org/1999/02/22-rdf-syntax-ns#">
   <cc:Work>
    <dc:type rdf:resource="http://purl.org/dc/dcmitype/StillImage"/>
    <dc:date>2022-05-18T11:36:02.412321</dc:date>
    <dc:format>image/svg+xml</dc:format>
    <dc:creator>
     <cc:Agent>
      <dc:title>Matplotlib v3.4.3, https://matplotlib.org/</dc:title>
     </cc:Agent>
    </dc:creator>
   </cc:Work>
  </rdf:RDF>
 </metadata>
 <defs>
  <style type="text/css">*{stroke-linecap:butt;stroke-linejoin:round;}</style>
 </defs>
 <g id="figure_1">
  <g id="patch_1">
   <path d="M 0 244.8 
L 244.8 244.8 
L 244.8 0 
L 0 0 
z
" style="fill:none;"/>
  </g>
  <g id="axes_1">
   <g id="patch_2">
    <path d="M 72 194.4 
L 230.4 194.4 
L 230.4 36 
L 72 36 
z
" style="fill:none;"/>
   </g>
   <g id="matplotlib.axis_1">
    <g id="xtick_1">
     <g id="line2d_1">
      <defs>
       <path d="M 0 0 
L 0 -3 
" id="mb35858acf6" style="stroke:#000000;stroke-width:0.6;"/>
      </defs>
      <g>
       <use style="fill-opacity:0;stroke:#000000;stroke-width:0.6;" x="72" xlink:href="#mb35858acf6" y="194.4"/>
      </g>
     </g>
     <g id="line2d_2">
      <defs>
       <path d="M 0 0 
L 0 3 
" id="m28fcebc70c" style="stroke:#000000;stroke-width:0.6;"/>
      </defs>
      <g>
       <use style="fill-opacity:0;stroke:#000000;stroke-width:0.6;" x="72" xlink:href="#m28fcebc70c" y="36"/>
      </g>
     </g>
     <g id="text_1">
      <!-- $\mathdefault{0}$ -->
      <g transform="translate(69.073505 209.27065)scale(0.12 -0.12)">
       <defs>
        <path d="M 2688 2025 
C 2688 2416 2682 3080 2413 3591 
C 2176 4039 1798 4198 1466 4198 
C 1158 4198 768 4058 525 3597 
C 269 3118 243 2524 243 2025 
C 243 1661 250 1106 448 619 
C 723 -39 1216 -128 1466 -128 
C 1760 -128 2208 -7 2470 600 
C 2662 1042 2688 1559 2688 2025 
z
M 1466 -26 
C 1056 -26 813 325 723 812 
C 653 1188 653 1738 653 2096 
C 653 2588 653 2997 736 3387 
C 858 3929 1216 4096 1466 4096 
C 1728 4096 2067 3923 2189 3400 
C 2272 3036 2278 2607 2278 2096 
C 2278 1680 2278 1169 2202 792 
C 2067 95 1690 -26 1466 -26 
z
" id="CMR17-30" transform="scale(0.015625)"/>
       </defs>
       <use transform="scale(0.996264)" xlink:href="#CMR17-30"/>
      </g>
     </g>
    </g>
    <g id="xtick_2">
     <g id="line2d_3">
      <g>
       <use style="fill-opacity:0;stroke:#000000;stroke-width:0.6;" x="98.4" xlink:href="#mb35858acf6" y="194.4"/>
      </g>
     </g>
     <g id="line2d_4">
      <g>
       <use style="fill-opacity:0;stroke:#000000;stroke-width:0.6;" x="98.4" xlink:href="#m28fcebc70c" y="36"/>
      </g>
     </g>
     <g id="text_2">
      <!-- $\mathdefault{10}$ -->
      <g transform="translate(92.54701 209.27065)scale(0.12 -0.12)">
       <defs>
        <path d="M 1702 4058 
C 1702 4192 1696 4192 1606 4192 
C 1357 3916 979 3827 621 3827 
C 602 3827 570 3827 563 3808 
C 557 3795 557 3782 557 3648 
C 755 3648 1088 3686 1344 3839 
L 1344 461 
C 1344 236 1331 160 781 160 
L 589 160 
L 589 0 
C 896 0 1216 0 1523 0 
C 1830 0 2150 0 2458 0 
L 2458 160 
L 2266 160 
C 1715 160 1702 230 1702 458 
L 1702 4058 
z
" id="CMR17-31" transform="scale(0.015625)"/>
       </defs>
       <use transform="scale(0.996264)" xlink:href="#CMR17-31"/>
       <use transform="translate(45.690477 0)scale(0.996264)" xlink:href="#CMR17-30"/>
      </g>
     </g>
    </g>
    <g id="xtick_3">
     <g id="line2d_5">
      <g>
       <use style="fill-opacity:0;stroke:#000000;stroke-width:0.6;" x="124.8" xlink:href="#mb35858acf6" y="194.4"/>
      </g>
     </g>
     <g id="line2d_6">
      <g>
       <use style="fill-opacity:0;stroke:#000000;stroke-width:0.6;" x="124.8" xlink:href="#m28fcebc70c" y="36"/>
      </g>
     </g>
     <g id="text_3">
      <!-- $\mathdefault{20}$ -->
      <g transform="translate(118.94701 209.27065)scale(0.12 -0.12)">
       <defs>
        <path d="M 2669 989 
L 2554 989 
C 2490 536 2438 459 2413 420 
C 2381 369 1920 369 1830 369 
L 602 369 
C 832 619 1280 1072 1824 1597 
C 2214 1967 2669 2402 2669 3035 
C 2669 3790 2067 4224 1395 4224 
C 691 4224 262 3604 262 3030 
C 262 2780 448 2748 525 2748 
C 589 2748 781 2787 781 3010 
C 781 3207 614 3264 525 3264 
C 486 3264 448 3258 422 3245 
C 544 3790 915 4058 1306 4058 
C 1862 4058 2227 3617 2227 3035 
C 2227 2479 1901 2000 1536 1584 
L 262 146 
L 262 0 
L 2515 0 
L 2669 989 
z
" id="CMR17-32" transform="scale(0.015625)"/>
       </defs>
       <use transform="scale(0.996264)" xlink:href="#CMR17-32"/>
       <use transform="translate(45.690477 0)scale(0.996264)" xlink:href="#CMR17-30"/>
      </g>
     </g>
    </g>
    <g id="xtick_4">
     <g id="line2d_7">
      <g>
       <use style="fill-opacity:0;stroke:#000000;stroke-width:0.6;" x="151.2" xlink:href="#mb35858acf6" y="194.4"/>
      </g>
     </g>
     <g id="line2d_8">
      <g>
       <use style="fill-opacity:0;stroke:#000000;stroke-width:0.6;" x="151.2" xlink:href="#m28fcebc70c" y="36"/>
      </g>
     </g>
     <g id="text_4">
      <!-- $\mathdefault{30}$ -->
      <g transform="translate(145.34701 209.27065)scale(0.12 -0.12)">
       <defs>
        <path d="M 1414 2157 
C 1984 2157 2234 1662 2234 1090 
C 2234 320 1824 25 1453 25 
C 1114 25 563 194 390 693 
C 422 680 454 680 486 680 
C 640 680 755 782 755 948 
C 755 1133 614 1216 486 1216 
C 378 1216 211 1165 211 926 
C 211 335 787 -128 1466 -128 
C 2176 -128 2720 430 2720 1085 
C 2720 1707 2208 2157 1600 2227 
C 2086 2328 2554 2756 2554 3329 
C 2554 3820 2048 4179 1472 4179 
C 890 4179 378 3829 378 3329 
C 378 3110 544 3072 627 3072 
C 762 3072 877 3155 877 3321 
C 877 3486 762 3569 627 3569 
C 602 3569 570 3569 544 3557 
C 730 3959 1235 4032 1459 4032 
C 1683 4032 2106 3925 2106 3320 
C 2106 3143 2080 2828 1862 2550 
C 1670 2304 1453 2304 1242 2284 
C 1210 2284 1062 2269 1037 2269 
C 992 2263 966 2257 966 2208 
C 966 2163 973 2157 1101 2157 
L 1414 2157 
z
" id="CMR17-33" transform="scale(0.015625)"/>
       </defs>
       <use transform="scale(0.996264)" xlink:href="#CMR17-33"/>
       <use transform="translate(45.690477 0)scale(0.996264)" xlink:href="#CMR17-30"/>
      </g>
     </g>
    </g>
    <g id="xtick_5">
     <g id="line2d_9">
      <g>
       <use style="fill-opacity:0;stroke:#000000;stroke-width:0.6;" x="177.6" xlink:href="#mb35858acf6" y="194.4"/>
      </g>
     </g>
     <g id="line2d_10">
      <g>
       <use style="fill-opacity:0;stroke:#000000;stroke-width:0.6;" x="177.6" xlink:href="#m28fcebc70c" y="36"/>
      </g>
     </g>
     <g id="text_5">
      <!-- $\mathdefault{40}$ -->
      <g transform="translate(171.74701 209.27065)scale(0.12 -0.12)">
       <defs>
        <path d="M 2150 4122 
C 2150 4256 2144 4256 2029 4256 
L 128 1254 
L 128 1088 
L 1779 1088 
L 1779 457 
C 1779 224 1766 160 1318 160 
L 1197 160 
L 1197 0 
C 1402 0 1747 0 1965 0 
C 2182 0 2528 0 2733 0 
L 2733 160 
L 2611 160 
C 2163 160 2150 224 2150 457 
L 2150 1088 
L 2803 1088 
L 2803 1254 
L 2150 1254 
L 2150 4122 
z
M 1798 3703 
L 1798 1254 
L 256 1254 
L 1798 3703 
z
" id="CMR17-34" transform="scale(0.015625)"/>
       </defs>
       <use transform="scale(0.996264)" xlink:href="#CMR17-34"/>
       <use transform="translate(45.690477 0)scale(0.996264)" xlink:href="#CMR17-30"/>
      </g>
     </g>
    </g>
    <g id="xtick_6">
     <g id="line2d_11">
      <g>
       <use style="fill-opacity:0;stroke:#000000;stroke-width:0.6;" x="204" xlink:href="#mb35858acf6" y="194.4"/>
      </g>
     </g>
     <g id="line2d_12">
      <g>
       <use style="fill-opacity:0;stroke:#000000;stroke-width:0.6;" x="204" xlink:href="#m28fcebc70c" y="36"/>
      </g>
     </g>
     <g id="text_6">
      <!-- $\mathdefault{50}$ -->
      <g transform="translate(198.14701 209.27065)scale(0.12 -0.12)">
       <defs>
        <path d="M 730 3692 
C 794 3666 1056 3584 1325 3584 
C 1920 3584 2246 3911 2432 4100 
C 2432 4157 2432 4192 2394 4192 
C 2387 4192 2374 4192 2323 4163 
C 2099 4058 1837 3973 1517 3973 
C 1325 3973 1037 3999 723 4139 
C 653 4171 640 4171 634 4171 
C 602 4171 595 4164 595 4037 
L 595 2203 
C 595 2089 595 2057 659 2057 
C 691 2057 704 2070 736 2114 
C 941 2401 1222 2522 1542 2522 
C 1766 2522 2246 2382 2246 1289 
C 2246 1085 2246 715 2054 421 
C 1894 159 1645 25 1370 25 
C 947 25 518 320 403 814 
C 429 807 480 795 506 795 
C 589 795 749 840 749 1038 
C 749 1210 627 1280 506 1280 
C 358 1280 262 1190 262 1011 
C 262 454 704 -128 1382 -128 
C 2042 -128 2669 440 2669 1264 
C 2669 2030 2170 2624 1549 2624 
C 1222 2624 947 2503 730 2274 
L 730 3692 
z
" id="CMR17-35" transform="scale(0.015625)"/>
       </defs>
       <use transform="scale(0.996264)" xlink:href="#CMR17-35"/>
       <use transform="translate(45.690477 0)scale(0.996264)" xlink:href="#CMR17-30"/>
      </g>
     </g>
    </g>
    <g id="xtick_7">
     <g id="line2d_13">
      <g>
       <use style="fill-opacity:0;stroke:#000000;stroke-width:0.6;" x="230.4" xlink:href="#mb35858acf6" y="194.4"/>
      </g>
     </g>
     <g id="line2d_14">
      <g>
       <use style="fill-opacity:0;stroke:#000000;stroke-width:0.6;" x="230.4" xlink:href="#m28fcebc70c" y="36"/>
      </g>
     </g>
     <g id="text_7">
      <!-- $\mathdefault{60}$ -->
      <g transform="translate(224.54701 209.27065)scale(0.12 -0.12)">
       <defs>
        <path d="M 678 2176 
C 678 3690 1395 4032 1811 4032 
C 1946 4032 2272 4009 2400 3776 
C 2298 3776 2106 3776 2106 3553 
C 2106 3381 2246 3323 2336 3323 
C 2394 3323 2566 3348 2566 3560 
C 2566 3954 2246 4179 1805 4179 
C 1043 4179 243 3390 243 1984 
C 243 253 966 -128 1478 -128 
C 2099 -128 2688 427 2688 1283 
C 2688 2081 2170 2662 1517 2662 
C 1126 2662 838 2407 678 1960 
L 678 2176 
z
M 1478 25 
C 691 25 691 1200 691 1436 
C 691 1896 909 2560 1504 2560 
C 1613 2560 1926 2560 2138 2120 
C 2253 1870 2253 1609 2253 1289 
C 2253 944 2253 690 2118 434 
C 1978 171 1773 25 1478 25 
z
" id="CMR17-36" transform="scale(0.015625)"/>
       </defs>
       <use transform="scale(0.996264)" xlink:href="#CMR17-36"/>
       <use transform="translate(45.690477 0)scale(0.996264)" xlink:href="#CMR17-30"/>
      </g>
     </g>
    </g>
    <g id="xtick_8">
     <g id="line2d_15">
      <defs>
       <path d="M 0 0 
L 0 -2 
" id="mec90b4d86a" style="stroke:#000000;stroke-width:0.4;"/>
      </defs>
      <g>
       <use style="fill-opacity:0;stroke:#000000;stroke-width:0.4;" x="77.28" xlink:href="#mec90b4d86a" y="194.4"/>
      </g>
     </g>
    </g>
    <g id="xtick_9">
     <g id="line2d_16">
      <g>
       <use style="fill-opacity:0;stroke:#000000;stroke-width:0.4;" x="82.56" xlink:href="#mec90b4d86a" y="194.4"/>
      </g>
     </g>
    </g>
    <g id="xtick_10">
     <g id="line2d_17">
      <g>
       <use style="fill-opacity:0;stroke:#000000;stroke-width:0.4;" x="87.84" xlink:href="#mec90b4d86a" y="194.4"/>
      </g>
     </g>
    </g>
    <g id="xtick_11">
     <g id="line2d_18">
      <g>
       <use style="fill-opacity:0;stroke:#000000;stroke-width:0.4;" x="93.12" xlink:href="#mec90b4d86a" y="194.4"/>
      </g>
     </g>
    </g>
    <g id="xtick_12">
     <g id="line2d_19">
      <g>
       <use style="fill-opacity:0;stroke:#000000;stroke-width:0.4;" x="103.68" xlink:href="#mec90b4d86a" y="194.4"/>
      </g>
     </g>
    </g>
    <g id="xtick_13">
     <g id="line2d_20">
      <g>
       <use style="fill-opacity:0;stroke:#000000;stroke-width:0.4;" x="108.96" xlink:href="#mec90b4d86a" y="194.4"/>
      </g>
     </g>
    </g>
    <g id="xtick_14">
     <g id="line2d_21">
      <g>
       <use style="fill-opacity:0;stroke:#000000;stroke-width:0.4;" x="114.24" xlink:href="#mec90b4d86a" y="194.4"/>
      </g>
     </g>
    </g>
    <g id="xtick_15">
     <g id="line2d_22">
      <g>
       <use style="fill-opacity:0;stroke:#000000;stroke-width:0.4;" x="119.52" xlink:href="#mec90b4d86a" y="194.4"/>
      </g>
     </g>
    </g>
    <g id="xtick_16">
     <g id="line2d_23">
      <g>
       <use style="fill-opacity:0;stroke:#000000;stroke-width:0.4;" x="130.08" xlink:href="#mec90b4d86a" y="194.4"/>
      </g>
     </g>
    </g>
    <g id="xtick_17">
     <g id="line2d_24">
      <g>
       <use style="fill-opacity:0;stroke:#000000;stroke-width:0.4;" x="135.36" xlink:href="#mec90b4d86a" y="194.4"/>
      </g>
     </g>
    </g>
    <g id="xtick_18">
     <g id="line2d_25">
      <g>
       <use style="fill-opacity:0;stroke:#000000;stroke-width:0.4;" x="140.64" xlink:href="#mec90b4d86a" y="194.4"/>
      </g>
     </g>
    </g>
    <g id="xtick_19">
     <g id="line2d_26">
      <g>
       <use style="fill-opacity:0;stroke:#000000;stroke-width:0.4;" x="145.92" xlink:href="#mec90b4d86a" y="194.4"/>
      </g>
     </g>
    </g>
    <g id="xtick_20">
     <g id="line2d_27">
      <g>
       <use style="fill-opacity:0;stroke:#000000;stroke-width:0.4;" x="156.48" xlink:href="#mec90b4d86a" y="194.4"/>
      </g>
     </g>
    </g>
    <g id="xtick_21">
     <g id="line2d_28">
      <g>
       <use style="fill-opacity:0;stroke:#000000;stroke-width:0.4;" x="161.76" xlink:href="#mec90b4d86a" y="194.4"/>
      </g>
     </g>
    </g>
    <g id="xtick_22">
     <g id="line2d_29">
      <g>
       <use style="fill-opacity:0;stroke:#000000;stroke-width:0.4;" x="167.04" xlink:href="#mec90b4d86a" y="194.4"/>
      </g>
     </g>
    </g>
    <g id="xtick_23">
     <g id="line2d_30">
      <g>
       <use style="fill-opacity:0;stroke:#000000;stroke-width:0.4;" x="172.32" xlink:href="#mec90b4d86a" y="194.4"/>
      </g>
     </g>
    </g>
    <g id="xtick_24">
     <g id="line2d_31">
      <g>
       <use style="fill-opacity:0;stroke:#000000;stroke-width:0.4;" x="182.88" xlink:href="#mec90b4d86a" y="194.4"/>
      </g>
     </g>
    </g>
    <g id="xtick_25">
     <g id="line2d_32">
      <g>
       <use style="fill-opacity:0;stroke:#000000;stroke-width:0.4;" x="188.16" xlink:href="#mec90b4d86a" y="194.4"/>
      </g>
     </g>
    </g>
    <g id="xtick_26">
     <g id="line2d_33">
      <g>
       <use style="fill-opacity:0;stroke:#000000;stroke-width:0.4;" x="193.44" xlink:href="#mec90b4d86a" y="194.4"/>
      </g>
     </g>
    </g>
    <g id="xtick_27">
     <g id="line2d_34">
      <g>
       <use style="fill-opacity:0;stroke:#000000;stroke-width:0.4;" x="198.72" xlink:href="#mec90b4d86a" y="194.4"/>
      </g>
     </g>
    </g>
    <g id="xtick_28">
     <g id="line2d_35">
      <g>
       <use style="fill-opacity:0;stroke:#000000;stroke-width:0.4;" x="209.28" xlink:href="#mec90b4d86a" y="194.4"/>
      </g>
     </g>
    </g>
    <g id="xtick_29">
     <g id="line2d_36">
      <g>
       <use style="fill-opacity:0;stroke:#000000;stroke-width:0.4;" x="214.56" xlink:href="#mec90b4d86a" y="194.4"/>
      </g>
     </g>
    </g>
    <g id="xtick_30">
     <g id="line2d_37">
      <g>
       <use style="fill-opacity:0;stroke:#000000;stroke-width:0.4;" x="219.84" xlink:href="#mec90b4d86a" y="194.4"/>
      </g>
     </g>
    </g>
    <g id="xtick_31">
     <g id="line2d_38">
      <g>
       <use style="fill-opacity:0;stroke:#000000;stroke-width:0.4;" x="225.12" xlink:href="#mec90b4d86a" y="194.4"/>
      </g>
     </g>
    </g>
    <g id="text_8">
     <!-- $T~(^\circ \mathrm{C})$ -->
     <g transform="translate(130.838771 228.801725)scale(0.144 -0.144)">
      <defs>
       <path d="M 2669 3910 
C 2707 4064 2720 4121 2816 4147 
C 2867 4160 3078 4160 3213 4160 
C 3853 4160 4154 4134 4154 3634 
C 4154 3537 4128 3295 4090 3057 
L 4083 2980 
C 4083 2954 4109 2916 4147 2916 
C 4211 2916 4211 2948 4230 3050 
L 4416 4184 
C 4429 4243 4429 4256 4429 4275 
C 4429 4345 4390 4345 4262 4345 
L 762 4345 
C 614 4345 608 4339 570 4224 
L 179 3070 
C 173 3056 154 2986 154 2980 
C 154 2948 179 2916 218 2916 
C 269 2916 282 2941 307 3024 
C 576 3801 710 4160 1562 4160 
L 1990 4160 
C 2144 4160 2208 4160 2208 4089 
C 2208 4069 2208 4057 2176 3941 
L 1318 499 
C 1254 249 1242 185 563 185 
C 403 185 358 185 358 64 
C 358 0 429 0 461 0 
C 621 0 787 0 947 0 
L 1946 0 
C 2106 0 2278 0 2438 0 
C 2509 0 2573 0 2573 121 
C 2573 185 2528 185 2362 185 
C 1786 185 1786 243 1786 339 
C 1786 346 1786 391 1811 494 
L 2669 3910 
z
" id="CMMI12-54" transform="scale(0.015625)"/>
       <path d="M 1958 -1561 
C 1958 -1555 1958 -1542 1939 -1523 
C 1645 -1224 858 -407 858 1581 
C 858 3569 1632 4379 1946 4697 
C 1946 4704 1958 4717 1958 4736 
C 1958 4755 1939 4768 1914 4768 
C 1843 4768 1299 4296 986 3594 
C 666 2887 576 2199 576 1588 
C 576 1128 621 351 1005 -471 
C 1312 -1135 1837 -1600 1914 -1600 
C 1946 -1600 1958 -1587 1958 -1561 
z
" id="CMR17-28" transform="scale(0.015625)"/>
       <path d="M 2842 1600 
C 2842 2277 2272 2828 1600 2828 
C 909 2828 352 2264 352 1600 
C 352 930 909 372 1600 372 
C 2272 372 2842 923 2842 1600 
z
M 1600 628 
C 1043 628 608 1070 608 1600 
C 608 2130 1050 2572 1600 2572 
C 2131 2572 2586 2142 2586 1600 
C 2586 1058 2131 628 1600 628 
z
" id="CMSY10-e" transform="scale(0.015625)"/>
       <path d="M 3974 4289 
C 3974 4403 3968 4410 3930 4410 
C 3904 4410 3898 4403 3853 4327 
L 3571 3792 
C 3258 4187 2874 4416 2381 4416 
C 1286 4416 294 3456 294 2148 
C 294 826 1286 -128 2387 -128 
C 3366 -128 3974 730 3974 1461 
C 3974 1524 3974 1550 3917 1550 
C 3866 1550 3866 1531 3859 1474 
C 3808 585 3168 38 2477 38 
C 1824 38 781 495 781 2147 
C 781 3805 1843 4250 2464 4250 
C 3187 4250 3712 3628 3834 2745 
C 3846 2668 3846 2655 3904 2655 
C 3974 2655 3974 2668 3974 2783 
L 3974 4289 
z
" id="CMR17-43" transform="scale(0.015625)"/>
       <path d="M 1683 1581 
C 1683 2040 1638 2817 1254 3639 
C 947 4303 422 4768 346 4768 
C 326 4768 301 4761 301 4729 
C 301 4717 307 4710 314 4697 
C 621 4378 1402 3568 1402 1584 
C 1402 -407 627 -1217 314 -1537 
C 307 -1549 301 -1556 301 -1568 
C 301 -1600 326 -1600 346 -1600 
C 416 -1600 960 -1128 1274 -426 
C 1594 281 1683 969 1683 1581 
z
" id="CMR17-29" transform="scale(0.015625)"/>
      </defs>
      <use transform="scale(0.996264)" xlink:href="#CMMI12-54"/>
      <use transform="translate(98.418802 0)scale(0.996264)" xlink:href="#CMR17-28"/>
      <use transform="translate(133.69957 36.153639)scale(0.697382)" xlink:href="#CMSY10-e"/>
      <use transform="translate(169.066912 0)scale(0.996264)" xlink:href="#CMR17-43"/>
      <use transform="translate(235.576792 0)scale(0.996264)" xlink:href="#CMR17-29"/>
     </g>
    </g>
   </g>
   <g id="matplotlib.axis_2">
    <g id="ytick_1">
     <g id="line2d_39">
      <defs>
       <path d="M 0 0 
L 3 0 
" id="mbd8a10f93f" style="stroke:#000000;stroke-width:0.6;"/>
      </defs>
      <g>
       <use style="fill-opacity:0;stroke:#000000;stroke-width:0.6;" x="72" xlink:href="#mbd8a10f93f" y="194.4"/>
      </g>
     </g>
     <g id="line2d_40">
      <defs>
       <path d="M 0 0 
L -3 0 
" id="m9dd616b09d" style="stroke:#000000;stroke-width:0.6;"/>
      </defs>
      <g>
       <use style="fill-opacity:0;stroke:#000000;stroke-width:0.6;" x="230.4" xlink:href="#m9dd616b09d" y="194.4"/>
      </g>
     </g>
     <g id="text_9">
      <!-- $\mathdefault{0.3}$ -->
      <g transform="translate(51.042358 198.835325)scale(0.12 -0.12)">
       <defs>
        <path d="M 1178 307 
C 1178 492 1024 619 870 619 
C 685 619 557 466 557 313 
C 557 128 710 0 864 0 
C 1050 0 1178 153 1178 307 
z
" id="CMMI12-3a" transform="scale(0.015625)"/>
       </defs>
       <use transform="scale(0.996264)" xlink:href="#CMR17-30"/>
       <use transform="translate(45.690477 0)scale(0.996264)" xlink:href="#CMMI12-3a"/>
       <use transform="translate(72.787654 0)scale(0.996264)" xlink:href="#CMR17-33"/>
      </g>
     </g>
    </g>
    <g id="ytick_2">
     <g id="line2d_41">
      <g>
       <use style="fill-opacity:0;stroke:#000000;stroke-width:0.6;" x="72" xlink:href="#mbd8a10f93f" y="154.8"/>
      </g>
     </g>
     <g id="line2d_42">
      <g>
       <use style="fill-opacity:0;stroke:#000000;stroke-width:0.6;" x="230.4" xlink:href="#m9dd616b09d" y="154.8"/>
      </g>
     </g>
     <g id="text_10">
      <!-- $\mathdefault{0.4}$ -->
      <g transform="translate(51.042358 159.235325)scale(0.12 -0.12)">
       <use transform="scale(0.996264)" xlink:href="#CMR17-30"/>
       <use transform="translate(45.690477 0)scale(0.996264)" xlink:href="#CMMI12-3a"/>
       <use transform="translate(72.787654 0)scale(0.996264)" xlink:href="#CMR17-34"/>
      </g>
     </g>
    </g>
    <g id="ytick_3">
     <g id="line2d_43">
      <g>
       <use style="fill-opacity:0;stroke:#000000;stroke-width:0.6;" x="72" xlink:href="#mbd8a10f93f" y="115.2"/>
      </g>
     </g>
     <g id="line2d_44">
      <g>
       <use style="fill-opacity:0;stroke:#000000;stroke-width:0.6;" x="230.4" xlink:href="#m9dd616b09d" y="115.2"/>
      </g>
     </g>
     <g id="text_11">
      <!-- $\mathdefault{0.5}$ -->
      <g transform="translate(51.042358 119.635325)scale(0.12 -0.12)">
       <use transform="scale(0.996264)" xlink:href="#CMR17-30"/>
       <use transform="translate(45.690477 0)scale(0.996264)" xlink:href="#CMMI12-3a"/>
       <use transform="translate(72.787654 0)scale(0.996264)" xlink:href="#CMR17-35"/>
      </g>
     </g>
    </g>
    <g id="ytick_4">
     <g id="line2d_45">
      <g>
       <use style="fill-opacity:0;stroke:#000000;stroke-width:0.6;" x="72" xlink:href="#mbd8a10f93f" y="75.6"/>
      </g>
     </g>
     <g id="line2d_46">
      <g>
       <use style="fill-opacity:0;stroke:#000000;stroke-width:0.6;" x="230.4" xlink:href="#m9dd616b09d" y="75.6"/>
      </g>
     </g>
     <g id="text_12">
      <!-- $\mathdefault{0.6}$ -->
      <g transform="translate(51.042358 80.035325)scale(0.12 -0.12)">
       <use transform="scale(0.996264)" xlink:href="#CMR17-30"/>
       <use transform="translate(45.690477 0)scale(0.996264)" xlink:href="#CMMI12-3a"/>
       <use transform="translate(72.787654 0)scale(0.996264)" xlink:href="#CMR17-36"/>
      </g>
     </g>
    </g>
    <g id="ytick_5">
     <g id="line2d_47">
      <g>
       <use style="fill-opacity:0;stroke:#000000;stroke-width:0.6;" x="72" xlink:href="#mbd8a10f93f" y="36"/>
      </g>
     </g>
     <g id="line2d_48">
      <g>
       <use style="fill-opacity:0;stroke:#000000;stroke-width:0.6;" x="230.4" xlink:href="#m9dd616b09d" y="36"/>
      </g>
     </g>
     <g id="text_13">
      <!-- $\mathdefault{0.7}$ -->
      <g transform="translate(51.042358 40.435325)scale(0.12 -0.12)">
       <defs>
        <path d="M 2886 3941 
L 2886 4081 
L 1382 4081 
C 634 4081 621 4165 595 4288 
L 480 4288 
L 294 3094 
L 410 3094 
C 429 3215 474 3540 550 3661 
C 589 3712 1062 3712 1171 3712 
L 2579 3712 
L 1869 2661 
C 1395 1954 1069 999 1069 165 
C 1069 89 1069 -128 1299 -128 
C 1530 -128 1530 89 1530 171 
L 1530 465 
C 1530 1508 1709 2196 2003 2636 
L 2886 3941 
z
" id="CMR17-37" transform="scale(0.015625)"/>
       </defs>
       <use transform="scale(0.996264)" xlink:href="#CMR17-30"/>
       <use transform="translate(45.690477 0)scale(0.996264)" xlink:href="#CMMI12-3a"/>
       <use transform="translate(72.787654 0)scale(0.996264)" xlink:href="#CMR17-37"/>
      </g>
     </g>
    </g>
    <g id="ytick_6">
     <g id="line2d_49">
      <defs>
       <path d="M 0 0 
L 2 0 
" id="mf337f78f44" style="stroke:#000000;stroke-width:0.4;"/>
      </defs>
      <g>
       <use style="fill-opacity:0;stroke:#000000;stroke-width:0.4;" x="72" xlink:href="#mf337f78f44" y="186.48"/>
      </g>
     </g>
    </g>
    <g id="ytick_7">
     <g id="line2d_50">
      <g>
       <use style="fill-opacity:0;stroke:#000000;stroke-width:0.4;" x="72" xlink:href="#mf337f78f44" y="178.56"/>
      </g>
     </g>
    </g>
    <g id="ytick_8">
     <g id="line2d_51">
      <g>
       <use style="fill-opacity:0;stroke:#000000;stroke-width:0.4;" x="72" xlink:href="#mf337f78f44" y="170.64"/>
      </g>
     </g>
    </g>
    <g id="ytick_9">
     <g id="line2d_52">
      <g>
       <use style="fill-opacity:0;stroke:#000000;stroke-width:0.4;" x="72" xlink:href="#mf337f78f44" y="162.72"/>
      </g>
     </g>
    </g>
    <g id="ytick_10">
     <g id="line2d_53">
      <g>
       <use style="fill-opacity:0;stroke:#000000;stroke-width:0.4;" x="72" xlink:href="#mf337f78f44" y="146.88"/>
      </g>
     </g>
    </g>
    <g id="ytick_11">
     <g id="line2d_54">
      <g>
       <use style="fill-opacity:0;stroke:#000000;stroke-width:0.4;" x="72" xlink:href="#mf337f78f44" y="138.96"/>
      </g>
     </g>
    </g>
    <g id="ytick_12">
     <g id="line2d_55">
      <g>
       <use style="fill-opacity:0;stroke:#000000;stroke-width:0.4;" x="72" xlink:href="#mf337f78f44" y="131.04"/>
      </g>
     </g>
    </g>
    <g id="ytick_13">
     <g id="line2d_56">
      <g>
       <use style="fill-opacity:0;stroke:#000000;stroke-width:0.4;" x="72" xlink:href="#mf337f78f44" y="123.12"/>
      </g>
     </g>
    </g>
    <g id="ytick_14">
     <g id="line2d_57">
      <g>
       <use style="fill-opacity:0;stroke:#000000;stroke-width:0.4;" x="72" xlink:href="#mf337f78f44" y="107.28"/>
      </g>
     </g>
    </g>
    <g id="ytick_15">
     <g id="line2d_58">
      <g>
       <use style="fill-opacity:0;stroke:#000000;stroke-width:0.4;" x="72" xlink:href="#mf337f78f44" y="99.36"/>
      </g>
     </g>
    </g>
    <g id="ytick_16">
     <g id="line2d_59">
      <g>
       <use style="fill-opacity:0;stroke:#000000;stroke-width:0.4;" x="72" xlink:href="#mf337f78f44" y="91.44"/>
      </g>
     </g>
    </g>
    <g id="ytick_17">
     <g id="line2d_60">
      <g>
       <use style="fill-opacity:0;stroke:#000000;stroke-width:0.4;" x="72" xlink:href="#mf337f78f44" y="83.52"/>
      </g>
     </g>
    </g>
    <g id="ytick_18">
     <g id="line2d_61">
      <g>
       <use style="fill-opacity:0;stroke:#000000;stroke-width:0.4;" x="72" xlink:href="#mf337f78f44" y="67.68"/>
      </g>
     </g>
    </g>
    <g id="ytick_19">
     <g id="line2d_62">
      <g>
       <use style="fill-opacity:0;stroke:#000000;stroke-width:0.4;" x="72" xlink:href="#mf337f78f44" y="59.76"/>
      </g>
     </g>
    </g>
    <g id="ytick_20">
     <g id="line2d_63">
      <g>
       <use style="fill-opacity:0;stroke:#000000;stroke-width:0.4;" x="72" xlink:href="#mf337f78f44" y="51.84"/>
      </g>
     </g>
    </g>
    <g id="ytick_21">
     <g id="line2d_64">
      <g>
       <use style="fill-opacity:0;stroke:#000000;stroke-width:0.4;" x="72" xlink:href="#mf337f78f44" y="43.92"/>
      </g>
     </g>
    </g>
    <g id="text_14">
     <!-- $n~(-)$ -->
     <g transform="translate(40.955817 132.428476)rotate(-90)scale(0.144 -0.144)">
      <defs>
       <path d="M 1318 1871 
C 1331 1910 1491 2229 1728 2433 
C 1894 2586 2112 2689 2362 2689 
C 2618 2689 2707 2497 2707 2242 
C 2707 1878 2445 1150 2317 805 
C 2259 651 2227 568 2227 453 
C 2227 166 2426 -64 2733 -64 
C 3328 -64 3552 875 3552 913 
C 3552 945 3526 971 3488 971 
C 3430 971 3424 952 3392 843 
C 3245 319 3002 64 2752 64 
C 2688 64 2586 64 2586 269 
C 2586 429 2656 621 2694 710 
C 2822 1063 3091 1780 3091 2145 
C 3091 2528 2867 2816 2381 2816 
C 1811 2816 1510 2415 1395 2255 
C 1376 2618 1114 2816 832 2816 
C 627 2816 486 2695 378 2478 
C 262 2248 173 1865 173 1839 
C 173 1814 198 1782 243 1782 
C 294 1782 301 1788 339 1935 
C 442 2325 557 2689 813 2689 
C 960 2689 1011 2586 1011 2395 
C 1011 2254 947 2005 902 1807 
L 723 1118 
C 698 996 627 709 595 594 
C 550 428 480 128 480 96 
C 480 6 550 -64 646 -64 
C 723 -64 813 -26 864 70 
C 877 102 934 326 966 453 
L 1107 1028 
L 1318 1871 
z
" id="CMMI12-6e" transform="scale(0.015625)"/>
       <path d="M 4218 1472 
C 4326 1472 4442 1472 4442 1600 
C 4442 1728 4326 1728 4218 1728 
L 755 1728 
C 646 1728 531 1728 531 1600 
C 531 1472 646 1472 755 1472 
L 4218 1472 
z
" id="CMSY10-0" transform="scale(0.015625)"/>
      </defs>
      <use transform="scale(0.996264)" xlink:href="#CMMI12-6e"/>
      <use transform="translate(85.925217 0)scale(0.996264)" xlink:href="#CMR17-28"/>
      <use transform="translate(121.205985 0)scale(0.996264)" xlink:href="#CMSY10-0"/>
      <use transform="translate(198.693452 0)scale(0.996264)" xlink:href="#CMR17-29"/>
     </g>
    </g>
   </g>
   <g id="line2d_65">
    <defs>
     <path d="M 0 2.5 
C 0.663008 2.5 1.29895 2.236584 1.767767 1.767767 
C 2.236584 1.29895 2.5 0.663008 2.5 0 
C 2.5 -0.663008 2.236584 -1.29895 1.767767 -1.767767 
C 1.29895 -2.236584 0.663008 -2.5 0 -2.5 
C -0.663008 -2.5 -1.29895 -2.236584 -1.767767 -1.767767 
C -2.236584 -1.29895 -2.5 -0.663008 -2.5 0 
C -2.5 0.663008 -2.236584 1.29895 -1.767767 1.767767 
C -1.29895 2.236584 -0.663008 2.5 0 2.5 
z
" id="mafa90d4a01" style="stroke:#3a4cbf;stroke-width:0.7;"/>
    </defs>
    <g clip-path="url(#pf524d033d7)">
     <use style="fill-opacity:0;stroke:#3a4cbf;stroke-width:0.7;" x="98.4" xlink:href="#mafa90d4a01" y="90.426374"/>
    </g>
   </g>
   <g id="line2d_66">
    <defs>
     <path d="M -0 2.5 
L 2.5 -2.5 
L -2.5 -2.5 
z
" id="mc893438c68" style="stroke:#6281e9;stroke-linejoin:miter;stroke-width:0.7;"/>
    </defs>
    <g clip-path="url(#pf524d033d7)">
     <use style="fill-opacity:0;stroke:#6281e9;stroke-linejoin:miter;stroke-width:0.7;" x="111.6" xlink:href="#mc893438c68" y="89.974252"/>
    </g>
   </g>
   <g id="line2d_67">
    <defs>
     <path d="M 0 -2.5 
L -2.5 2.5 
L 2.5 2.5 
z
" id="m3ec2933e17" style="stroke:#629ae9;stroke-linejoin:miter;stroke-width:0.7;"/>
    </defs>
    <g clip-path="url(#pf524d033d7)">
     <use style="fill-opacity:0;stroke:#629ae9;stroke-linejoin:miter;stroke-width:0.7;" x="124.8" xlink:href="#m3ec2933e17" y="91.36447"/>
    </g>
   </g>
   <g id="line2d_68">
    <defs>
     <path d="M -2.5 2.5 
L 2.5 2.5 
L 2.5 -2.5 
L -2.5 -2.5 
z
" id="m69cd646b3b" style="stroke:#b7cff7;stroke-linejoin:miter;stroke-width:0.7;"/>
    </defs>
    <g clip-path="url(#pf524d033d7)">
     <use style="fill-opacity:0;stroke:#b7cff7;stroke-linejoin:miter;stroke-width:0.7;" x="138" xlink:href="#m69cd646b3b" y="93.371059"/>
    </g>
   </g>
   <g id="line2d_69">
    <defs>
     <path d="M 0 3.535534 
L 3.535534 0 
L 0 -3.535534 
L -3.535534 0 
z
" id="m3c6584a87f" style="stroke:#dbdbdb;stroke-linejoin:miter;stroke-width:0.7;"/>
    </defs>
    <g clip-path="url(#pf524d033d7)">
     <use style="fill-opacity:0;stroke:#dbdbdb;stroke-linejoin:miter;stroke-width:0.7;" x="151.2" xlink:href="#m3c6584a87f" y="94.657242"/>
    </g>
   </g>
   <g id="line2d_70">
    <defs>
     <path d="M 0 -2.5 
L -0.561285 -0.772542 
L -2.377641 -0.772542 
L -0.908178 0.295085 
L -1.469463 2.022542 
L -0 0.954915 
L 1.469463 2.022542 
L 0.908178 0.295085 
L 2.377641 -0.772542 
L 0.561285 -0.772542 
z
" id="m2800bef130" style="stroke:#f3c3ab;stroke-linejoin:bevel;stroke-width:0.7;"/>
    </defs>
    <g clip-path="url(#pf524d033d7)">
     <use style="fill-opacity:0;stroke:#f3c3ab;stroke-linejoin:bevel;stroke-width:0.7;" x="164.4" xlink:href="#m2800bef130" y="96.226024"/>
    </g>
   </g>
   <g id="line2d_71">
    <defs>
     <path d="M 0 2.5 
C 0.663008 2.5 1.29895 2.236584 1.767767 1.767767 
C 2.236584 1.29895 2.5 0.663008 2.5 0 
C 2.5 -0.663008 2.236584 -1.29895 1.767767 -1.767767 
C 1.29895 -2.236584 0.663008 -2.5 0 -2.5 
C -0.663008 -2.5 -1.29895 -2.236584 -1.767767 -1.767767 
C -2.236584 -1.29895 -2.5 -0.663008 -2.5 0 
C -2.5 0.663008 -2.236584 1.29895 -1.767767 1.767767 
C -1.29895 2.236584 -0.663008 2.5 0 2.5 
z
" id="m3b826846f9" style="stroke:#f39779;stroke-width:0.7;"/>
    </defs>
    <g clip-path="url(#pf524d033d7)">
     <use style="fill-opacity:0;stroke:#f39779;stroke-width:0.7;" x="177.6" xlink:href="#m3b826846f9" y="96.69591"/>
    </g>
   </g>
   <g id="line2d_72">
    <defs>
     <path d="M -0 2.5 
L 2.5 -2.5 
L -2.5 -2.5 
z
" id="md2ae77b5c7" style="stroke:#db5e4a;stroke-linejoin:miter;stroke-width:0.7;"/>
    </defs>
    <g clip-path="url(#pf524d033d7)">
     <use style="fill-opacity:0;stroke:#db5e4a;stroke-linejoin:miter;stroke-width:0.7;" x="190.8" xlink:href="#md2ae77b5c7" y="97.331691"/>
    </g>
   </g>
   <g id="line2d_73">
    <defs>
     <path d="M 0 -2.5 
L -2.5 2.5 
L 2.5 2.5 
z
" id="m53ee4c470e" style="stroke:#b30426;stroke-linejoin:miter;stroke-width:0.7;"/>
    </defs>
    <g clip-path="url(#pf524d033d7)">
     <use style="fill-opacity:0;stroke:#b30426;stroke-linejoin:miter;stroke-width:0.7;" x="204" xlink:href="#m53ee4c470e" y="99.55962"/>
    </g>
   </g>
   <g id="patch_3">
    <path d="M 72 194.4 
L 72 36 
" style="fill:none;stroke:#000000;stroke-linecap:square;stroke-linejoin:miter;stroke-width:0.5;"/>
   </g>
   <g id="patch_4">
    <path d="M 230.4 194.4 
L 230.4 36 
" style="fill:none;stroke:#000000;stroke-linecap:square;stroke-linejoin:miter;stroke-width:0.5;"/>
   </g>
   <g id="patch_5">
    <path d="M 72 194.4 
L 230.4 194.4 
" style="fill:none;stroke:#000000;stroke-linecap:square;stroke-linejoin:miter;stroke-width:0.5;"/>
   </g>
   <g id="patch_6">
    <path d="M 72 36 
L 230.4 36 
" style="fill:none;stroke:#000000;stroke-linecap:square;stroke-linejoin:miter;stroke-width:0.5;"/>
   </g>
  </g>
 </g>
 <defs>
  <clipPath id="pf524d033d7">
   <rect height="158.4" width="158.4" x="72" y="36"/>
  </clipPath>
 </defs>
</svg>
