<?xml version="1.0" encoding="utf-8" standalone="no"?>
<!DOCTYPE svg PUBLIC "-//W3C//DTD SVG 1.1//EN"
  "http://www.w3.org/Graphics/SVG/1.1/DTD/svg11.dtd">
<svg height="244.8pt" version="1.1" viewBox="0 0 244.8 244.8" width="244.8pt" xmlns="http://www.w3.org/2000/svg" xmlns:xlink="http://www.w3.org/1999/xlink">
 <metadata>
  <rdf:RDF xmlns:cc="http://creativecommons.org/ns#" xmlns:dc="http://purl.org/dc/elements/1.1/" xmlns:rdf="http://www.w3.org/1999/02/22-rdf-syntax-ns#">
   <cc:Work>
    <dc:type rdf:resource="http://purl.org/dc/dcmitype/StillImage"/>
    <dc:date>2022-05-27T12:41:33.837154</dc:date>
    <dc:format>image/svg+xml</dc:format>
    <dc:creator>
     <cc:Agent>
      <dc:title>Matplotlib v3.4.3, https://matplotlib.org/</dc:title>
     </cc:Agent>
    </dc:creator>
   </cc:Work>
  </rdf:RDF>
 </metadata>
 <defs>
  <style type="text/css">*{stroke-linecap:butt;stroke-linejoin:round;}</style>
 </defs>
 <g id="figure_1">
  <g id="patch_1">
   <path d="M 0 244.8 
L 244.8 244.8 
L 244.8 0 
L 0 0 
z
" style="fill:none;"/>
  </g>
  <g id="axes_1">
   <g id="patch_2">
    <path d="M 72 194.4 
L 230.4 194.4 
L 230.4 36 
L 72 36 
z
" style="fill:none;"/>
   </g>
   <g id="matplotlib.axis_1">
    <g id="xtick_1">
     <g id="line2d_1">
      <defs>
       <path d="M 0 0 
L 0 -3 
" id="m546b9f1952" style="stroke:#000000;stroke-width:0.6;"/>
      </defs>
      <g>
       <use style="fill-opacity:0;stroke:#000000;stroke-width:0.6;" x="72" xlink:href="#m546b9f1952" y="194.4"/>
      </g>
     </g>
     <g id="line2d_2">
      <defs>
       <path d="M 0 0 
L 0 3 
" id="m28146cd1dc" style="stroke:#000000;stroke-width:0.6;"/>
      </defs>
      <g>
       <use style="fill-opacity:0;stroke:#000000;stroke-width:0.6;" x="72" xlink:href="#m28146cd1dc" y="36"/>
      </g>
     </g>
     <g id="text_1">
      <!-- $\mathdefault{1.5}$ -->
      <g transform="translate(64.521179 209.27065)scale(0.12 -0.12)">
       <defs>
        <path d="M 1702 4058 
C 1702 4192 1696 4192 1606 4192 
C 1357 3916 979 3827 621 3827 
C 602 3827 570 3827 563 3808 
C 557 3795 557 3782 557 3648 
C 755 3648 1088 3686 1344 3839 
L 1344 461 
C 1344 236 1331 160 781 160 
L 589 160 
L 589 0 
C 896 0 1216 0 1523 0 
C 1830 0 2150 0 2458 0 
L 2458 160 
L 2266 160 
C 1715 160 1702 230 1702 458 
L 1702 4058 
z
" id="CMR17-31" transform="scale(0.015625)"/>
        <path d="M 1178 307 
C 1178 492 1024 619 870 619 
C 685 619 557 466 557 313 
C 557 128 710 0 864 0 
C 1050 0 1178 153 1178 307 
z
" id="CMMI12-3a" transform="scale(0.015625)"/>
        <path d="M 730 3692 
C 794 3666 1056 3584 1325 3584 
C 1920 3584 2246 3911 2432 4100 
C 2432 4157 2432 4192 2394 4192 
C 2387 4192 2374 4192 2323 4163 
C 2099 4058 1837 3973 1517 3973 
C 1325 3973 1037 3999 723 4139 
C 653 4171 640 4171 634 4171 
C 602 4171 595 4164 595 4037 
L 595 2203 
C 595 2089 595 2057 659 2057 
C 691 2057 704 2070 736 2114 
C 941 2401 1222 2522 1542 2522 
C 1766 2522 2246 2382 2246 1289 
C 2246 1085 2246 715 2054 421 
C 1894 159 1645 25 1370 25 
C 947 25 518 320 403 814 
C 429 807 480 795 506 795 
C 589 795 749 840 749 1038 
C 749 1210 627 1280 506 1280 
C 358 1280 262 1190 262 1011 
C 262 454 704 -128 1382 -128 
C 2042 -128 2669 440 2669 1264 
C 2669 2030 2170 2624 1549 2624 
C 1222 2624 947 2503 730 2274 
L 730 3692 
z
" id="CMR17-35" transform="scale(0.015625)"/>
       </defs>
       <use transform="scale(0.996264)" xlink:href="#CMR17-31"/>
       <use transform="translate(45.690477 0)scale(0.996264)" xlink:href="#CMMI12-3a"/>
       <use transform="translate(72.787654 0)scale(0.996264)" xlink:href="#CMR17-35"/>
      </g>
     </g>
    </g>
    <g id="xtick_2">
     <g id="line2d_3">
      <g>
       <use style="fill-opacity:0;stroke:#000000;stroke-width:0.6;" x="111.6" xlink:href="#m546b9f1952" y="194.4"/>
      </g>
     </g>
     <g id="line2d_4">
      <g>
       <use style="fill-opacity:0;stroke:#000000;stroke-width:0.6;" x="111.6" xlink:href="#m28146cd1dc" y="36"/>
      </g>
     </g>
     <g id="text_2">
      <!-- $\mathdefault{2.0}$ -->
      <g transform="translate(104.121179 209.27065)scale(0.12 -0.12)">
       <defs>
        <path d="M 2669 989 
L 2554 989 
C 2490 536 2438 459 2413 420 
C 2381 369 1920 369 1830 369 
L 602 369 
C 832 619 1280 1072 1824 1597 
C 2214 1967 2669 2402 2669 3035 
C 2669 3790 2067 4224 1395 4224 
C 691 4224 262 3604 262 3030 
C 262 2780 448 2748 525 2748 
C 589 2748 781 2787 781 3010 
C 781 3207 614 3264 525 3264 
C 486 3264 448 3258 422 3245 
C 544 3790 915 4058 1306 4058 
C 1862 4058 2227 3617 2227 3035 
C 2227 2479 1901 2000 1536 1584 
L 262 146 
L 262 0 
L 2515 0 
L 2669 989 
z
" id="CMR17-32" transform="scale(0.015625)"/>
        <path d="M 2688 2025 
C 2688 2416 2682 3080 2413 3591 
C 2176 4039 1798 4198 1466 4198 
C 1158 4198 768 4058 525 3597 
C 269 3118 243 2524 243 2025 
C 243 1661 250 1106 448 619 
C 723 -39 1216 -128 1466 -128 
C 1760 -128 2208 -7 2470 600 
C 2662 1042 2688 1559 2688 2025 
z
M 1466 -26 
C 1056 -26 813 325 723 812 
C 653 1188 653 1738 653 2096 
C 653 2588 653 2997 736 3387 
C 858 3929 1216 4096 1466 4096 
C 1728 4096 2067 3923 2189 3400 
C 2272 3036 2278 2607 2278 2096 
C 2278 1680 2278 1169 2202 792 
C 2067 95 1690 -26 1466 -26 
z
" id="CMR17-30" transform="scale(0.015625)"/>
       </defs>
       <use transform="scale(0.996264)" xlink:href="#CMR17-32"/>
       <use transform="translate(45.690477 0)scale(0.996264)" xlink:href="#CMMI12-3a"/>
       <use transform="translate(72.787654 0)scale(0.996264)" xlink:href="#CMR17-30"/>
      </g>
     </g>
    </g>
    <g id="xtick_3">
     <g id="line2d_5">
      <g>
       <use style="fill-opacity:0;stroke:#000000;stroke-width:0.6;" x="151.2" xlink:href="#m546b9f1952" y="194.4"/>
      </g>
     </g>
     <g id="line2d_6">
      <g>
       <use style="fill-opacity:0;stroke:#000000;stroke-width:0.6;" x="151.2" xlink:href="#m28146cd1dc" y="36"/>
      </g>
     </g>
     <g id="text_3">
      <!-- $\mathdefault{2.5}$ -->
      <g transform="translate(143.721179 209.27065)scale(0.12 -0.12)">
       <use transform="scale(0.996264)" xlink:href="#CMR17-32"/>
       <use transform="translate(45.690477 0)scale(0.996264)" xlink:href="#CMMI12-3a"/>
       <use transform="translate(72.787654 0)scale(0.996264)" xlink:href="#CMR17-35"/>
      </g>
     </g>
    </g>
    <g id="xtick_4">
     <g id="line2d_7">
      <g>
       <use style="fill-opacity:0;stroke:#000000;stroke-width:0.6;" x="190.8" xlink:href="#m546b9f1952" y="194.4"/>
      </g>
     </g>
     <g id="line2d_8">
      <g>
       <use style="fill-opacity:0;stroke:#000000;stroke-width:0.6;" x="190.8" xlink:href="#m28146cd1dc" y="36"/>
      </g>
     </g>
     <g id="text_4">
      <!-- $\mathdefault{3.0}$ -->
      <g transform="translate(183.321179 209.27065)scale(0.12 -0.12)">
       <defs>
        <path d="M 1414 2157 
C 1984 2157 2234 1662 2234 1090 
C 2234 320 1824 25 1453 25 
C 1114 25 563 194 390 693 
C 422 680 454 680 486 680 
C 640 680 755 782 755 948 
C 755 1133 614 1216 486 1216 
C 378 1216 211 1165 211 926 
C 211 335 787 -128 1466 -128 
C 2176 -128 2720 430 2720 1085 
C 2720 1707 2208 2157 1600 2227 
C 2086 2328 2554 2756 2554 3329 
C 2554 3820 2048 4179 1472 4179 
C 890 4179 378 3829 378 3329 
C 378 3110 544 3072 627 3072 
C 762 3072 877 3155 877 3321 
C 877 3486 762 3569 627 3569 
C 602 3569 570 3569 544 3557 
C 730 3959 1235 4032 1459 4032 
C 1683 4032 2106 3925 2106 3320 
C 2106 3143 2080 2828 1862 2550 
C 1670 2304 1453 2304 1242 2284 
C 1210 2284 1062 2269 1037 2269 
C 992 2263 966 2257 966 2208 
C 966 2163 973 2157 1101 2157 
L 1414 2157 
z
" id="CMR17-33" transform="scale(0.015625)"/>
       </defs>
       <use transform="scale(0.996264)" xlink:href="#CMR17-33"/>
       <use transform="translate(45.690477 0)scale(0.996264)" xlink:href="#CMMI12-3a"/>
       <use transform="translate(72.787654 0)scale(0.996264)" xlink:href="#CMR17-30"/>
      </g>
     </g>
    </g>
    <g id="xtick_5">
     <g id="line2d_9">
      <g>
       <use style="fill-opacity:0;stroke:#000000;stroke-width:0.6;" x="230.4" xlink:href="#m546b9f1952" y="194.4"/>
      </g>
     </g>
     <g id="line2d_10">
      <g>
       <use style="fill-opacity:0;stroke:#000000;stroke-width:0.6;" x="230.4" xlink:href="#m28146cd1dc" y="36"/>
      </g>
     </g>
     <g id="text_5">
      <!-- $\mathdefault{3.5}$ -->
      <g transform="translate(222.921179 209.27065)scale(0.12 -0.12)">
       <use transform="scale(0.996264)" xlink:href="#CMR17-33"/>
       <use transform="translate(45.690477 0)scale(0.996264)" xlink:href="#CMMI12-3a"/>
       <use transform="translate(72.787654 0)scale(0.996264)" xlink:href="#CMR17-35"/>
      </g>
     </g>
    </g>
    <g id="xtick_6">
     <g id="line2d_11">
      <defs>
       <path d="M 0 0 
L 0 -2 
" id="m2381d1e631" style="stroke:#000000;stroke-width:0.4;"/>
      </defs>
      <g>
       <use style="fill-opacity:0;stroke:#000000;stroke-width:0.4;" x="79.92" xlink:href="#m2381d1e631" y="194.4"/>
      </g>
     </g>
    </g>
    <g id="xtick_7">
     <g id="line2d_12">
      <g>
       <use style="fill-opacity:0;stroke:#000000;stroke-width:0.4;" x="87.84" xlink:href="#m2381d1e631" y="194.4"/>
      </g>
     </g>
    </g>
    <g id="xtick_8">
     <g id="line2d_13">
      <g>
       <use style="fill-opacity:0;stroke:#000000;stroke-width:0.4;" x="95.76" xlink:href="#m2381d1e631" y="194.4"/>
      </g>
     </g>
    </g>
    <g id="xtick_9">
     <g id="line2d_14">
      <g>
       <use style="fill-opacity:0;stroke:#000000;stroke-width:0.4;" x="103.68" xlink:href="#m2381d1e631" y="194.4"/>
      </g>
     </g>
    </g>
    <g id="xtick_10">
     <g id="line2d_15">
      <g>
       <use style="fill-opacity:0;stroke:#000000;stroke-width:0.4;" x="119.52" xlink:href="#m2381d1e631" y="194.4"/>
      </g>
     </g>
    </g>
    <g id="xtick_11">
     <g id="line2d_16">
      <g>
       <use style="fill-opacity:0;stroke:#000000;stroke-width:0.4;" x="127.44" xlink:href="#m2381d1e631" y="194.4"/>
      </g>
     </g>
    </g>
    <g id="xtick_12">
     <g id="line2d_17">
      <g>
       <use style="fill-opacity:0;stroke:#000000;stroke-width:0.4;" x="135.36" xlink:href="#m2381d1e631" y="194.4"/>
      </g>
     </g>
    </g>
    <g id="xtick_13">
     <g id="line2d_18">
      <g>
       <use style="fill-opacity:0;stroke:#000000;stroke-width:0.4;" x="143.28" xlink:href="#m2381d1e631" y="194.4"/>
      </g>
     </g>
    </g>
    <g id="xtick_14">
     <g id="line2d_19">
      <g>
       <use style="fill-opacity:0;stroke:#000000;stroke-width:0.4;" x="159.12" xlink:href="#m2381d1e631" y="194.4"/>
      </g>
     </g>
    </g>
    <g id="xtick_15">
     <g id="line2d_20">
      <g>
       <use style="fill-opacity:0;stroke:#000000;stroke-width:0.4;" x="167.04" xlink:href="#m2381d1e631" y="194.4"/>
      </g>
     </g>
    </g>
    <g id="xtick_16">
     <g id="line2d_21">
      <g>
       <use style="fill-opacity:0;stroke:#000000;stroke-width:0.4;" x="174.96" xlink:href="#m2381d1e631" y="194.4"/>
      </g>
     </g>
    </g>
    <g id="xtick_17">
     <g id="line2d_22">
      <g>
       <use style="fill-opacity:0;stroke:#000000;stroke-width:0.4;" x="182.88" xlink:href="#m2381d1e631" y="194.4"/>
      </g>
     </g>
    </g>
    <g id="xtick_18">
     <g id="line2d_23">
      <g>
       <use style="fill-opacity:0;stroke:#000000;stroke-width:0.4;" x="198.72" xlink:href="#m2381d1e631" y="194.4"/>
      </g>
     </g>
    </g>
    <g id="xtick_19">
     <g id="line2d_24">
      <g>
       <use style="fill-opacity:0;stroke:#000000;stroke-width:0.4;" x="206.64" xlink:href="#m2381d1e631" y="194.4"/>
      </g>
     </g>
    </g>
    <g id="xtick_20">
     <g id="line2d_25">
      <g>
       <use style="fill-opacity:0;stroke:#000000;stroke-width:0.4;" x="214.56" xlink:href="#m2381d1e631" y="194.4"/>
      </g>
     </g>
    </g>
    <g id="xtick_21">
     <g id="line2d_26">
      <g>
       <use style="fill-opacity:0;stroke:#000000;stroke-width:0.4;" x="222.48" xlink:href="#m2381d1e631" y="194.4"/>
      </g>
     </g>
    </g>
    <g id="text_6">
     <!-- $c~(\mathrm{wt.}\%)$ -->
     <g transform="translate(125.112442 228.801725)scale(0.144 -0.144)">
      <defs>
       <path d="M 2502 2431 
C 2381 2431 2323 2431 2234 2355 
C 2195 2323 2125 2227 2125 2125 
C 2125 1997 2221 1920 2342 1920 
C 2496 1920 2669 2044 2669 2292 
C 2669 2588 2374 2816 1933 2816 
C 1094 2816 256 1903 256 996 
C 256 441 602 -64 1254 -64 
C 2125 -64 2675 622 2675 706 
C 2675 744 2637 776 2611 776 
C 2592 776 2586 770 2528 713 
C 2118 162 1510 64 1267 64 
C 826 64 685 446 685 764 
C 685 988 794 1605 1024 2039 
C 1190 2338 1536 2682 1939 2682 
C 2022 2682 2374 2682 2502 2431 
z
" id="CMMI12-63" transform="scale(0.015625)"/>
       <path d="M 1958 -1561 
C 1958 -1555 1958 -1542 1939 -1523 
C 1645 -1224 858 -407 858 1581 
C 858 3569 1632 4379 1946 4697 
C 1946 4704 1958 4717 1958 4736 
C 1958 4755 1939 4768 1914 4768 
C 1843 4768 1299 4296 986 3594 
C 666 2887 576 2199 576 1588 
C 576 1128 621 351 1005 -471 
C 1312 -1135 1837 -1600 1914 -1600 
C 1946 -1600 1958 -1587 1958 -1561 
z
" id="CMR17-28" transform="scale(0.015625)"/>
       <path d="M 3725 2183 
C 3853 2560 4109 2560 4205 2560 
L 4205 2732 
C 4077 2732 3949 2732 3821 2732 
C 3699 2732 3424 2732 3315 2738 
L 3315 2560 
C 3514 2560 3622 2445 3622 2286 
C 3622 2241 3610 2184 3597 2140 
L 2995 407 
L 2342 2275 
C 2330 2319 2310 2370 2310 2395 
C 2310 2560 2528 2560 2630 2560 
L 2630 2738 
C 2483 2732 2214 2732 2061 2732 
C 1901 2732 1734 2732 1587 2738 
L 1587 2560 
C 1939 2560 1939 2547 2074 2149 
L 1485 451 
L 851 2281 
C 819 2363 819 2376 819 2395 
C 819 2560 1037 2560 1139 2560 
L 1139 2738 
C 986 2732 717 2732 557 2732 
C 416 2732 198 2732 64 2738 
L 64 2560 
C 346 2560 416 2541 486 2331 
L 1274 49 
C 1299 -33 1318 -52 1370 -52 
C 1414 -52 1440 -39 1472 56 
L 2131 1980 
L 2797 56 
C 2829 -39 2854 -52 2899 -52 
C 2950 -52 2970 -33 2995 50 
L 3725 2183 
z
" id="CMR17-77" transform="scale(0.015625)"/>
       <path d="M 966 2560 
L 1862 2560 
L 1862 2725 
L 966 2725 
L 966 3904 
L 851 3904 
C 838 3245 614 2668 70 2668 
L 70 2560 
L 627 2560 
L 627 771 
C 627 650 627 -64 1370 -64 
C 1747 -64 1965 306 1965 777 
L 1965 1140 
L 1850 1140 
L 1850 783 
C 1850 344 1677 51 1408 51 
C 1222 51 966 178 966 758 
L 966 2560 
z
" id="CMR17-74" transform="scale(0.015625)"/>
       <path d="M 4640 959 
C 4640 1698 4275 2240 3846 2240 
C 3411 2240 2970 1736 2970 959 
C 2970 183 3405 -320 3846 -320 
C 4275 -320 4640 215 4640 959 
z
M 3853 -218 
C 3686 -218 3270 -66 3270 959 
C 3270 1991 3686 2138 3853 2138 
C 4205 2138 4525 1634 4525 959 
C 4525 285 4205 -218 3853 -218 
z
M 4083 4577 
C 4128 4647 4134 4653 4134 4685 
C 4134 4761 4077 4800 4026 4800 
C 3962 4800 3936 4756 3891 4706 
C 3520 4190 3008 4134 2746 4134 
C 2106 4134 1715 4494 1594 4607 
C 1510 4682 1389 4800 1171 4800 
C 736 4800 294 4296 294 3519 
C 294 2743 730 2240 1171 2240 
C 1600 2240 1965 2778 1965 3527 
C 1965 3969 1830 4270 1811 4308 
C 2202 4064 2586 4032 2752 4032 
C 3162 4032 3456 4183 3616 4289 
L 3622 4283 
L 858 -84 
C 800 -174 800 -187 800 -206 
C 800 -276 858 -320 915 -320 
C 973 -320 992 -289 1037 -218 
L 4083 4577 
z
M 1178 2342 
C 1011 2342 595 2494 595 3519 
C 595 4551 1011 4698 1178 4698 
C 1530 4698 1850 4194 1850 3519 
C 1850 2845 1530 2342 1178 2342 
z
" id="CMR17-25" transform="scale(0.015625)"/>
       <path d="M 1683 1581 
C 1683 2040 1638 2817 1254 3639 
C 947 4303 422 4768 346 4768 
C 326 4768 301 4761 301 4729 
C 301 4717 307 4710 314 4697 
C 621 4378 1402 3568 1402 1584 
C 1402 -407 627 -1217 314 -1537 
C 307 -1549 301 -1556 301 -1568 
C 301 -1600 326 -1600 346 -1600 
C 416 -1600 960 -1128 1274 -426 
C 1594 281 1683 969 1683 1581 
z
" id="CMR17-29" transform="scale(0.015625)"/>
      </defs>
      <use transform="scale(0.996264)" xlink:href="#CMMI12-63"/>
      <use transform="translate(69.678403 0)scale(0.996264)" xlink:href="#CMR17-28"/>
      <use transform="translate(104.959171 0)scale(0.996264)" xlink:href="#CMR17-77"/>
      <use transform="translate(171.469052 0)scale(0.996264)" xlink:href="#CMR17-74"/>
      <use transform="translate(206.749819 0)scale(0.996264)" xlink:href="#CMMI12-3a"/>
      <use transform="translate(233.846996 0)scale(0.996264)" xlink:href="#CMR17-25"/>
      <use transform="translate(310.766586 0)scale(0.996264)" xlink:href="#CMR17-29"/>
     </g>
    </g>
   </g>
   <g id="matplotlib.axis_2">
    <g id="ytick_1">
     <g id="line2d_27">
      <defs>
       <path d="M 0 0 
L 3 0 
" id="md46b109177" style="stroke:#000000;stroke-width:0.6;"/>
      </defs>
      <g>
       <use style="fill-opacity:0;stroke:#000000;stroke-width:0.6;" x="72" xlink:href="#md46b109177" y="194.4"/>
      </g>
     </g>
     <g id="line2d_28">
      <defs>
       <path d="M 0 0 
L -3 0 
" id="m4893562ba5" style="stroke:#000000;stroke-width:0.6;"/>
      </defs>
      <g>
       <use style="fill-opacity:0;stroke:#000000;stroke-width:0.6;" x="230.4" xlink:href="#m4893562ba5" y="194.4"/>
      </g>
     </g>
     <g id="text_7">
      <!-- $\mathdefault{10^{0}}$ -->
      <g transform="translate(50.059837 198.835325)scale(0.12 -0.12)">
       <use transform="scale(0.996264)" xlink:href="#CMR17-31"/>
       <use transform="translate(45.690477 0)scale(0.996264)" xlink:href="#CMR17-30"/>
       <use transform="translate(91.380954 36.153639)scale(0.697382)" xlink:href="#CMR17-30"/>
      </g>
     </g>
    </g>
    <g id="ytick_2">
     <g id="line2d_29">
      <g>
       <use style="fill-opacity:0;stroke:#000000;stroke-width:0.6;" x="72" xlink:href="#md46b109177" y="115.2"/>
      </g>
     </g>
     <g id="line2d_30">
      <g>
       <use style="fill-opacity:0;stroke:#000000;stroke-width:0.6;" x="230.4" xlink:href="#m4893562ba5" y="115.2"/>
      </g>
     </g>
     <g id="text_8">
      <!-- $\mathdefault{10^{1}}$ -->
      <g transform="translate(50.059837 119.635325)scale(0.12 -0.12)">
       <use transform="scale(0.996264)" xlink:href="#CMR17-31"/>
       <use transform="translate(45.690477 0)scale(0.996264)" xlink:href="#CMR17-30"/>
       <use transform="translate(91.380954 36.153639)scale(0.697382)" xlink:href="#CMR17-31"/>
      </g>
     </g>
    </g>
    <g id="ytick_3">
     <g id="line2d_31">
      <g>
       <use style="fill-opacity:0;stroke:#000000;stroke-width:0.6;" x="72" xlink:href="#md46b109177" y="36"/>
      </g>
     </g>
     <g id="line2d_32">
      <g>
       <use style="fill-opacity:0;stroke:#000000;stroke-width:0.6;" x="230.4" xlink:href="#m4893562ba5" y="36"/>
      </g>
     </g>
     <g id="text_9">
      <!-- $\mathdefault{10^{2}}$ -->
      <g transform="translate(50.059837 40.435325)scale(0.12 -0.12)">
       <use transform="scale(0.996264)" xlink:href="#CMR17-31"/>
       <use transform="translate(45.690477 0)scale(0.996264)" xlink:href="#CMR17-30"/>
       <use transform="translate(91.380954 36.153639)scale(0.697382)" xlink:href="#CMR17-32"/>
      </g>
     </g>
    </g>
    <g id="ytick_4">
     <g id="line2d_33">
      <defs>
       <path d="M 0 0 
L 2 0 
" id="me042106f51" style="stroke:#000000;stroke-width:0.4;"/>
      </defs>
      <g>
       <use style="fill-opacity:0;stroke:#000000;stroke-width:0.4;" x="72" xlink:href="#me042106f51" y="170.558424"/>
      </g>
     </g>
    </g>
    <g id="ytick_5">
     <g id="line2d_34">
      <g>
       <use style="fill-opacity:0;stroke:#000000;stroke-width:0.4;" x="72" xlink:href="#me042106f51" y="156.611997"/>
      </g>
     </g>
    </g>
    <g id="ytick_6">
     <g id="line2d_35">
      <g>
       <use style="fill-opacity:0;stroke:#000000;stroke-width:0.4;" x="72" xlink:href="#me042106f51" y="146.716849"/>
      </g>
     </g>
    </g>
    <g id="ytick_7">
     <g id="line2d_36">
      <g>
       <use style="fill-opacity:0;stroke:#000000;stroke-width:0.4;" x="72" xlink:href="#me042106f51" y="139.041576"/>
      </g>
     </g>
    </g>
    <g id="ytick_8">
     <g id="line2d_37">
      <g>
       <use style="fill-opacity:0;stroke:#000000;stroke-width:0.4;" x="72" xlink:href="#me042106f51" y="132.770421"/>
      </g>
     </g>
    </g>
    <g id="ytick_9">
     <g id="line2d_38">
      <g>
       <use style="fill-opacity:0;stroke:#000000;stroke-width:0.4;" x="72" xlink:href="#me042106f51" y="127.468235"/>
      </g>
     </g>
    </g>
    <g id="ytick_10">
     <g id="line2d_39">
      <g>
       <use style="fill-opacity:0;stroke:#000000;stroke-width:0.4;" x="72" xlink:href="#me042106f51" y="122.875273"/>
      </g>
     </g>
    </g>
    <g id="ytick_11">
     <g id="line2d_40">
      <g>
       <use style="fill-opacity:0;stroke:#000000;stroke-width:0.4;" x="72" xlink:href="#me042106f51" y="118.823993"/>
      </g>
     </g>
    </g>
    <g id="ytick_12">
     <g id="line2d_41">
      <g>
       <use style="fill-opacity:0;stroke:#000000;stroke-width:0.4;" x="72" xlink:href="#me042106f51" y="91.358424"/>
      </g>
     </g>
    </g>
    <g id="ytick_13">
     <g id="line2d_42">
      <g>
       <use style="fill-opacity:0;stroke:#000000;stroke-width:0.4;" x="72" xlink:href="#me042106f51" y="77.411997"/>
      </g>
     </g>
    </g>
    <g id="ytick_14">
     <g id="line2d_43">
      <g>
       <use style="fill-opacity:0;stroke:#000000;stroke-width:0.4;" x="72" xlink:href="#me042106f51" y="67.516849"/>
      </g>
     </g>
    </g>
    <g id="ytick_15">
     <g id="line2d_44">
      <g>
       <use style="fill-opacity:0;stroke:#000000;stroke-width:0.4;" x="72" xlink:href="#me042106f51" y="59.841576"/>
      </g>
     </g>
    </g>
    <g id="ytick_16">
     <g id="line2d_45">
      <g>
       <use style="fill-opacity:0;stroke:#000000;stroke-width:0.4;" x="72" xlink:href="#me042106f51" y="53.570421"/>
      </g>
     </g>
    </g>
    <g id="ytick_17">
     <g id="line2d_46">
      <g>
       <use style="fill-opacity:0;stroke:#000000;stroke-width:0.4;" x="72" xlink:href="#me042106f51" y="48.268235"/>
      </g>
     </g>
    </g>
    <g id="ytick_18">
     <g id="line2d_47">
      <g>
       <use style="fill-opacity:0;stroke:#000000;stroke-width:0.4;" x="72" xlink:href="#me042106f51" y="43.675273"/>
      </g>
     </g>
    </g>
    <g id="ytick_19">
     <g id="line2d_48">
      <g>
       <use style="fill-opacity:0;stroke:#000000;stroke-width:0.4;" x="72" xlink:href="#me042106f51" y="39.623993"/>
      </g>
     </g>
    </g>
    <g id="text_10">
     <!-- $\sigma_\mathrm{ys}{(Pa)}$ -->
     <g transform="translate(39.47074 138.687407)rotate(-90)scale(0.144 -0.144)">
      <defs>
       <path d="M 3251 2408 
C 3334 2408 3546 2408 3546 2612 
C 3546 2752 3424 2752 3309 2752 
L 1894 2752 
C 934 2752 243 1686 243 932 
C 243 390 595 -64 1171 -64 
C 1926 -64 2752 747 2752 1705 
C 2752 1954 2694 2196 2541 2408 
L 3251 2408 
z
M 1178 64 
C 851 64 614 313 614 754 
C 614 1137 845 2408 1786 2408 
C 2061 2408 2368 2274 2368 1781 
C 2368 1558 2266 1021 2042 652 
C 1811 275 1466 64 1178 64 
z
" id="CMMI12-1b" transform="scale(0.015625)"/>
       <path d="M 2496 2197 
C 2656 2586 2944 2586 3034 2586 
L 3034 2752 
C 2912 2752 2752 2752 2630 2752 
C 2496 2752 2285 2752 2157 2758 
L 2157 2592 
C 2400 2573 2406 2394 2406 2343 
C 2406 2280 2394 2248 2362 2171 
L 1664 449 
L 902 2306 
C 870 2382 870 2426 870 2433 
C 870 2573 1018 2586 1171 2586 
L 1171 2758 
C 1018 2752 742 2752 582 2752 
C 410 2752 205 2752 64 2758 
L 64 2586 
C 410 2586 448 2554 531 2350 
L 1485 15 
C 1197 -738 1030 -1178 627 -1178 
C 557 -1178 397 -1159 282 -1044 
C 429 -1031 493 -942 493 -833 
C 493 -725 416 -629 288 -629 
C 147 -629 77 -725 77 -840 
C 77 -1095 339 -1280 627 -1280 
C 998 -1280 1229 -922 1357 -604 
L 2496 2197 
z
" id="CMR17-79" transform="scale(0.015625)"/>
       <path d="M 1978 2697 
C 1978 2813 1971 2819 1933 2819 
C 1907 2819 1901 2813 1824 2717 
C 1805 2691 1747 2626 1728 2601 
C 1523 2819 1235 2819 1126 2819 
C 416 2819 160 2447 160 2076 
C 160 1498 813 1365 998 1325 
C 1402 1243 1542 1217 1677 1101 
C 1760 1025 1901 884 1901 654 
C 1901 384 1747 38 1158 38 
C 602 38 403 460 288 1021 
C 269 1110 269 1117 218 1117 
C 166 1117 160 1110 160 983 
L 160 63 
C 160 -51 166 -58 205 -58 
C 237 -58 243 -51 275 0 
C 314 57 410 211 448 276 
C 576 103 800 -64 1158 -64 
C 1792 -64 2131 283 2131 784 
C 2131 1112 1958 1285 1875 1362 
C 1683 1561 1459 1606 1190 1657 
C 838 1735 390 1825 390 2217 
C 390 2383 480 2737 1126 2737 
C 1811 2737 1850 2094 1862 1888 
C 1869 1856 1901 1849 1920 1849 
C 1978 1849 1978 1869 1978 1978 
L 1978 2697 
z
" id="CMR17-73" transform="scale(0.015625)"/>
       <path d="M 1894 2023 
L 2970 2023 
C 3853 2023 4736 2673 4736 3401 
C 4736 3898 4314 4352 3507 4352 
L 1530 4352 
C 1408 4352 1350 4352 1350 4231 
C 1350 4167 1408 4167 1504 4167 
C 1894 4167 1894 4116 1894 4046 
C 1894 4034 1894 3995 1869 3899 
L 1005 472 
C 947 249 934 185 486 185 
C 365 185 301 185 301 70 
C 301 0 358 0 397 0 
C 518 0 646 0 768 0 
L 1517 0 
C 1638 0 1773 0 1894 0 
C 1946 0 2016 0 2016 121 
C 2016 185 1958 185 1862 185 
C 1478 185 1472 230 1472 293 
C 1472 325 1478 369 1485 401 
L 1894 2023 
z
M 2355 3930 
C 2413 4167 2438 4167 2688 4167 
L 3322 4167 
C 3802 4167 4198 4013 4198 3535 
C 4198 3369 4115 2827 3821 2534 
C 3712 2419 3405 2176 2822 2176 
L 1920 2176 
L 2355 3930 
z
" id="CMMI12-50" transform="scale(0.015625)"/>
       <path d="M 1926 760 
C 1894 651 1894 639 1805 517 
C 1664 338 1382 64 1082 64 
C 819 64 672 300 672 677 
C 672 1028 870 1743 992 2012 
C 1210 2459 1510 2689 1760 2689 
C 2182 2689 2266 2165 2266 2114 
C 2266 2108 2246 2024 2240 2012 
L 1926 760 
z
M 2336 2395 
C 2266 2561 2093 2816 1760 2816 
C 1037 2816 256 1884 256 939 
C 256 307 627 -64 1062 -64 
C 1414 -64 1715 211 1894 422 
C 1958 45 2259 -64 2451 -64 
C 2643 -64 2797 51 2912 281 
C 3014 498 3104 888 3104 913 
C 3104 945 3078 971 3040 971 
C 2982 971 2976 939 2950 843 
C 2854 466 2733 64 2470 64 
C 2285 64 2272 230 2272 358 
C 2272 505 2291 575 2349 824 
C 2394 984 2426 1124 2477 1309 
C 2714 2267 2771 2497 2771 2535 
C 2771 2625 2701 2695 2605 2695 
C 2400 2695 2349 2472 2336 2395 
z
" id="CMMI12-61" transform="scale(0.015625)"/>
      </defs>
      <use transform="scale(0.996264)" xlink:href="#CMMI12-1b"/>
      <use transform="translate(55.445461 -14.943915)scale(0.697382)" xlink:href="#CMR17-79"/>
      <use transform="translate(89.250348 -14.943915)scale(0.697382)" xlink:href="#CMR17-73"/>
      <use transform="translate(114.809303 0)scale(0.996264)" xlink:href="#CMR17-28"/>
      <use transform="translate(150.090071 0)scale(0.996264)" xlink:href="#CMMI12-50"/>
      <use transform="translate(226.515891 0)scale(0.996264)" xlink:href="#CMMI12-61"/>
      <use transform="translate(277.723749 0)scale(0.996264)" xlink:href="#CMR17-29"/>
     </g>
    </g>
   </g>
   <g id="line2d_49">
    <defs>
     <path d="M 0 2.5 
C 0.663008 2.5 1.29895 2.236584 1.767767 1.767767 
C 2.236584 1.29895 2.5 0.663008 2.5 0 
C 2.5 -0.663008 2.236584 -1.29895 1.767767 -1.767767 
C 1.29895 -2.236584 0.663008 -2.5 0 -2.5 
C -0.663008 -2.5 -1.29895 -2.236584 -1.767767 -1.767767 
C -2.236584 -1.29895 -2.5 -0.663008 -2.5 0 
C -2.5 0.663008 -2.236584 1.29895 -1.767767 1.767767 
C -1.29895 2.236584 -0.663008 2.5 0 2.5 
z
" id="ma76d57f101" style="stroke:#6f4c9b;stroke-width:0.7;"/>
    </defs>
    <g clip-path="url(#pa229fd521d)">
     <use style="fill:#6f4c9b;stroke:#6f4c9b;stroke-width:0.7;" x="190.8" xlink:href="#ma76d57f101" y="42.319453"/>
    </g>
   </g>
   <g id="line2d_50">
    <defs>
     <path d="M -0 2.5 
L 2.5 -2.5 
L -2.5 -2.5 
z
" id="m3bdeb13837" style="stroke:#6f4c9b;stroke-linejoin:miter;stroke-width:0.7;"/>
    </defs>
    <g clip-path="url(#pa229fd521d)">
     <use style="fill-opacity:0;stroke:#6f4c9b;stroke-linejoin:miter;stroke-width:0.7;" x="190.8" xlink:href="#m3bdeb13837" y="40.378583"/>
    </g>
   </g>
   <g id="line2d_51">
    <defs>
     <path d="M 0 -2.5 
L -2.5 2.5 
L 2.5 2.5 
z
" id="m87626b758d" style="stroke:#5568b8;stroke-linejoin:miter;stroke-width:0.7;"/>
    </defs>
    <g clip-path="url(#pa229fd521d)">
     <use style="fill:#5568b8;stroke:#5568b8;stroke-linejoin:miter;stroke-width:0.7;" x="167.04" xlink:href="#m87626b758d" y="77.468645"/>
    </g>
   </g>
   <g id="line2d_52">
    <defs>
     <path d="M -2.5 2.5 
L 2.5 2.5 
L 2.5 -2.5 
L -2.5 -2.5 
z
" id="md89450162f" style="stroke:#5568b8;stroke-linejoin:miter;stroke-width:0.7;"/>
    </defs>
    <g clip-path="url(#pa229fd521d)">
     <use style="fill-opacity:0;stroke:#5568b8;stroke-linejoin:miter;stroke-width:0.7;" x="167.04" xlink:href="#md89450162f" y="69.569765"/>
    </g>
   </g>
   <g id="line2d_53">
    <defs>
     <path d="M 0 3.535534 
L 3.535534 0 
L 0 -3.535534 
L -3.535534 0 
z
" id="m8792e312ee" style="stroke:#4d8ac6;stroke-linejoin:miter;stroke-width:0.7;"/>
    </defs>
    <g clip-path="url(#pa229fd521d)">
     <use style="fill:#4d8ac6;stroke:#4d8ac6;stroke-linejoin:miter;stroke-width:0.7;" x="111.6" xlink:href="#m8792e312ee" y="115.071885"/>
    </g>
   </g>
   <g id="line2d_54">
    <defs>
     <path d="M 0 -2.5 
L -0.561285 -0.772542 
L -2.377641 -0.772542 
L -0.908178 0.295085 
L -1.469463 2.022542 
L -0 0.954915 
L 1.469463 2.022542 
L 0.908178 0.295085 
L 2.377641 -0.772542 
L 0.561285 -0.772542 
z
" id="m7c3d9ed6f6" style="stroke:#4d8ac6;stroke-linejoin:bevel;stroke-width:0.7;"/>
    </defs>
    <g clip-path="url(#pa229fd521d)">
     <use style="fill-opacity:0;stroke:#4d8ac6;stroke-linejoin:bevel;stroke-width:0.7;" x="111.6" xlink:href="#m7c3d9ed6f6" y="100.46209"/>
    </g>
   </g>
   <g id="line2d_55">
    <defs>
     <path d="M 0 2.5 
C 0.663008 2.5 1.29895 2.236584 1.767767 1.767767 
C 2.236584 1.29895 2.5 0.663008 2.5 0 
C 2.5 -0.663008 2.236584 -1.29895 1.767767 -1.767767 
C 1.29895 -2.236584 0.663008 -2.5 0 -2.5 
C -0.663008 -2.5 -1.29895 -2.236584 -1.767767 -1.767767 
C -2.236584 -1.29895 -2.5 -0.663008 -2.5 0 
C -2.5 0.663008 -2.236584 1.29895 -1.767767 1.767767 
C -1.29895 2.236584 -0.663008 2.5 0 2.5 
z
" id="mc8fb37f843" style="stroke:#60ab9e;stroke-width:0.7;"/>
    </defs>
    <g clip-path="url(#pa229fd521d)">
     <use style="fill:#60ab9e;stroke:#60ab9e;stroke-width:0.7;" x="103.68" xlink:href="#mc8fb37f843" y="154.341338"/>
    </g>
   </g>
   <g id="line2d_56">
    <defs>
     <path d="M -0 2.5 
L 2.5 -2.5 
L -2.5 -2.5 
z
" id="ma52d6ea074" style="stroke:#60ab9e;stroke-linejoin:miter;stroke-width:0.7;"/>
    </defs>
    <g clip-path="url(#pa229fd521d)">
     <use style="fill-opacity:0;stroke:#60ab9e;stroke-linejoin:miter;stroke-width:0.7;" x="103.68" xlink:href="#ma52d6ea074" y="124.443879"/>
    </g>
   </g>
   <g id="line2d_57">
    <defs>
     <path d="M 0 -2.5 
L -2.5 2.5 
L 2.5 2.5 
z
" id="m0000bf9a4a" style="stroke:#77b77d;stroke-linejoin:miter;stroke-width:0.7;"/>
    </defs>
    <g clip-path="url(#pa229fd521d)">
     <use style="fill:#77b77d;stroke:#77b77d;stroke-linejoin:miter;stroke-width:0.7;" x="99.72" xlink:href="#m0000bf9a4a" y="138.558401"/>
    </g>
   </g>
   <g id="line2d_58">
    <defs>
     <path d="M -2.5 2.5 
L 2.5 2.5 
L 2.5 -2.5 
L -2.5 -2.5 
z
" id="m944856e6e2" style="stroke:#77b77d;stroke-linejoin:miter;stroke-width:0.7;"/>
    </defs>
    <g clip-path="url(#pa229fd521d)">
     <use style="fill-opacity:0;stroke:#77b77d;stroke-linejoin:miter;stroke-width:0.7;" x="99.72" xlink:href="#m944856e6e2" y="124.329819"/>
    </g>
   </g>
   <g id="line2d_59">
    <defs>
     <path d="M 0 3.535534 
L 3.535534 0 
L 0 -3.535534 
L -3.535534 0 
z
" id="mf9e67286ab" style="stroke:#a6be54;stroke-linejoin:miter;stroke-width:0.7;"/>
    </defs>
    <g clip-path="url(#pa229fd521d)">
     <use style="fill:#a6be54;stroke:#a6be54;stroke-linejoin:miter;stroke-width:0.7;" x="95.76" xlink:href="#mf9e67286ab" y="161.544928"/>
    </g>
   </g>
   <g id="line2d_60">
    <defs>
     <path d="M 0 -2.5 
L -0.561285 -0.772542 
L -2.377641 -0.772542 
L -0.908178 0.295085 
L -1.469463 2.022542 
L -0 0.954915 
L 1.469463 2.022542 
L 0.908178 0.295085 
L 2.377641 -0.772542 
L 0.561285 -0.772542 
z
" id="m09a4f6ed72" style="stroke:#a6be54;stroke-linejoin:bevel;stroke-width:0.7;"/>
    </defs>
    <g clip-path="url(#pa229fd521d)">
     <use style="fill-opacity:0;stroke:#a6be54;stroke-linejoin:bevel;stroke-width:0.7;" x="95.76" xlink:href="#m09a4f6ed72" y="136.978851"/>
    </g>
   </g>
   <g id="line2d_61">
    <defs>
     <path d="M 0 2.5 
C 0.663008 2.5 1.29895 2.236584 1.767767 1.767767 
C 2.236584 1.29895 2.5 0.663008 2.5 0 
C 2.5 -0.663008 2.236584 -1.29895 1.767767 -1.767767 
C 1.29895 -2.236584 0.663008 -2.5 0 -2.5 
C -0.663008 -2.5 -1.29895 -2.236584 -1.767767 -1.767767 
C -2.236584 -1.29895 -2.5 -0.663008 -2.5 0 
C -2.5 0.663008 -2.236584 1.29895 -1.767767 1.767767 
C -1.29895 2.236584 -0.663008 2.5 0 2.5 
z
" id="m23aab03240" style="stroke:#d1b541;stroke-width:0.7;"/>
    </defs>
    <g clip-path="url(#pa229fd521d)">
     <use style="fill:#d1b541;stroke:#d1b541;stroke-width:0.7;" x="94.176" xlink:href="#m23aab03240" y="166.704372"/>
    </g>
   </g>
   <g id="line2d_62">
    <defs>
     <path d="M -0 2.5 
L 2.5 -2.5 
L -2.5 -2.5 
z
" id="me4feb74dc6" style="stroke:#d1b541;stroke-linejoin:miter;stroke-width:0.7;"/>
    </defs>
    <g clip-path="url(#pa229fd521d)">
     <use style="fill-opacity:0;stroke:#d1b541;stroke-linejoin:miter;stroke-width:0.7;" x="94.176" xlink:href="#me4feb74dc6" y="141.582676"/>
    </g>
   </g>
   <g id="line2d_63">
    <path clip-path="url(#pa229fd521d)" d="M 94.625973 245.8 
L 94.628571 182.131765 
L 97.861224 155.917102 
L 101.093878 141.214685 
L 104.326531 130.947683 
L 107.559184 123.051213 
L 110.791837 116.633379 
L 114.02449 111.226805 
L 117.257143 106.555758 
L 120.489796 102.443868 
L 123.722449 98.771464 
L 126.955102 95.453605 
L 130.187755 92.42782 
L 133.420408 89.646821 
L 136.653061 87.07395 
L 139.885714 84.68021 
L 143.118367 82.442275 
L 146.35102 80.341095 
L 149.583673 78.360915 
L 152.816327 76.488555 
L 156.04898 74.712877 
L 159.281633 73.024385 
L 162.514286 71.414916 
L 165.746939 69.877403 
L 168.979592 68.405687 
L 172.212245 66.994366 
L 175.444898 65.638678 
L 178.677551 64.334404 
L 181.910204 63.077784 
L 185.142857 61.865461 
L 188.37551 60.694416 
L 191.608163 59.561931 
L 194.840816 58.465547 
L 198.073469 57.403034 
L 201.306122 56.372362 
L 204.538776 55.371677 
L 207.771429 54.399283 
L 211.004082 53.453626 
L 214.236735 52.533273 
L 217.469388 51.636907 
L 220.702041 50.763307 
L 223.934694 49.911348 
L 227.167347 49.079981 
L 230.4 48.268235 
" style="fill:none;stroke:#000000;stroke-dasharray:2.59,1.12;stroke-dashoffset:0;stroke-width:0.7;"/>
    <defs>
     <path d="M 0 2.25 
C 0.596707 2.25 1.169055 2.012926 1.59099 1.59099 
C 2.012926 1.169055 2.25 0.596707 2.25 0 
C 2.25 -0.596707 2.012926 -1.169055 1.59099 -1.59099 
C 1.169055 -2.012926 0.596707 -2.25 0 -2.25 
C -0.596707 -2.25 -1.169055 -2.012926 -1.59099 -1.59099 
C -2.012926 -1.169055 -2.25 -0.596707 -2.25 0 
C -2.25 0.596707 -2.012926 1.169055 -1.59099 1.59099 
C -1.169055 2.012926 -0.596707 2.25 0 2.25 
z
" id="m9e393951c8" style="stroke:#000000;stroke-width:0.7;"/>
    </defs>
    <g clip-path="url(#pa229fd521d)">
     <use style="fill-opacity:0;stroke:#000000;stroke-width:0.7;" x="93.916663" xlink:href="#m9e393951c8" y="17626.6"/>
     <use style="fill-opacity:0;stroke:#000000;stroke-width:0.7;" x="94.628571" xlink:href="#m9e393951c8" y="182.131765"/>
     <use style="fill-opacity:0;stroke:#000000;stroke-width:0.7;" x="97.861224" xlink:href="#m9e393951c8" y="155.917102"/>
     <use style="fill-opacity:0;stroke:#000000;stroke-width:0.7;" x="101.093878" xlink:href="#m9e393951c8" y="141.214685"/>
     <use style="fill-opacity:0;stroke:#000000;stroke-width:0.7;" x="104.326531" xlink:href="#m9e393951c8" y="130.947683"/>
     <use style="fill-opacity:0;stroke:#000000;stroke-width:0.7;" x="107.559184" xlink:href="#m9e393951c8" y="123.051213"/>
     <use style="fill-opacity:0;stroke:#000000;stroke-width:0.7;" x="110.791837" xlink:href="#m9e393951c8" y="116.633379"/>
     <use style="fill-opacity:0;stroke:#000000;stroke-width:0.7;" x="114.02449" xlink:href="#m9e393951c8" y="111.226805"/>
     <use style="fill-opacity:0;stroke:#000000;stroke-width:0.7;" x="117.257143" xlink:href="#m9e393951c8" y="106.555758"/>
     <use style="fill-opacity:0;stroke:#000000;stroke-width:0.7;" x="120.489796" xlink:href="#m9e393951c8" y="102.443868"/>
     <use style="fill-opacity:0;stroke:#000000;stroke-width:0.7;" x="123.722449" xlink:href="#m9e393951c8" y="98.771464"/>
     <use style="fill-opacity:0;stroke:#000000;stroke-width:0.7;" x="126.955102" xlink:href="#m9e393951c8" y="95.453605"/>
     <use style="fill-opacity:0;stroke:#000000;stroke-width:0.7;" x="130.187755" xlink:href="#m9e393951c8" y="92.42782"/>
     <use style="fill-opacity:0;stroke:#000000;stroke-width:0.7;" x="133.420408" xlink:href="#m9e393951c8" y="89.646821"/>
     <use style="fill-opacity:0;stroke:#000000;stroke-width:0.7;" x="136.653061" xlink:href="#m9e393951c8" y="87.07395"/>
     <use style="fill-opacity:0;stroke:#000000;stroke-width:0.7;" x="139.885714" xlink:href="#m9e393951c8" y="84.68021"/>
     <use style="fill-opacity:0;stroke:#000000;stroke-width:0.7;" x="143.118367" xlink:href="#m9e393951c8" y="82.442275"/>
     <use style="fill-opacity:0;stroke:#000000;stroke-width:0.7;" x="146.35102" xlink:href="#m9e393951c8" y="80.341095"/>
     <use style="fill-opacity:0;stroke:#000000;stroke-width:0.7;" x="149.583673" xlink:href="#m9e393951c8" y="78.360915"/>
     <use style="fill-opacity:0;stroke:#000000;stroke-width:0.7;" x="152.816327" xlink:href="#m9e393951c8" y="76.488555"/>
     <use style="fill-opacity:0;stroke:#000000;stroke-width:0.7;" x="156.04898" xlink:href="#m9e393951c8" y="74.712877"/>
     <use style="fill-opacity:0;stroke:#000000;stroke-width:0.7;" x="159.281633" xlink:href="#m9e393951c8" y="73.024385"/>
     <use style="fill-opacity:0;stroke:#000000;stroke-width:0.7;" x="162.514286" xlink:href="#m9e393951c8" y="71.414916"/>
     <use style="fill-opacity:0;stroke:#000000;stroke-width:0.7;" x="165.746939" xlink:href="#m9e393951c8" y="69.877403"/>
     <use style="fill-opacity:0;stroke:#000000;stroke-width:0.7;" x="168.979592" xlink:href="#m9e393951c8" y="68.405687"/>
     <use style="fill-opacity:0;stroke:#000000;stroke-width:0.7;" x="172.212245" xlink:href="#m9e393951c8" y="66.994366"/>
     <use style="fill-opacity:0;stroke:#000000;stroke-width:0.7;" x="175.444898" xlink:href="#m9e393951c8" y="65.638678"/>
     <use style="fill-opacity:0;stroke:#000000;stroke-width:0.7;" x="178.677551" xlink:href="#m9e393951c8" y="64.334404"/>
     <use style="fill-opacity:0;stroke:#000000;stroke-width:0.7;" x="181.910204" xlink:href="#m9e393951c8" y="63.077784"/>
     <use style="fill-opacity:0;stroke:#000000;stroke-width:0.7;" x="185.142857" xlink:href="#m9e393951c8" y="61.865461"/>
     <use style="fill-opacity:0;stroke:#000000;stroke-width:0.7;" x="188.37551" xlink:href="#m9e393951c8" y="60.694416"/>
     <use style="fill-opacity:0;stroke:#000000;stroke-width:0.7;" x="191.608163" xlink:href="#m9e393951c8" y="59.561931"/>
     <use style="fill-opacity:0;stroke:#000000;stroke-width:0.7;" x="194.840816" xlink:href="#m9e393951c8" y="58.465547"/>
     <use style="fill-opacity:0;stroke:#000000;stroke-width:0.7;" x="198.073469" xlink:href="#m9e393951c8" y="57.403034"/>
     <use style="fill-opacity:0;stroke:#000000;stroke-width:0.7;" x="201.306122" xlink:href="#m9e393951c8" y="56.372362"/>
     <use style="fill-opacity:0;stroke:#000000;stroke-width:0.7;" x="204.538776" xlink:href="#m9e393951c8" y="55.371677"/>
     <use style="fill-opacity:0;stroke:#000000;stroke-width:0.7;" x="207.771429" xlink:href="#m9e393951c8" y="54.399283"/>
     <use style="fill-opacity:0;stroke:#000000;stroke-width:0.7;" x="211.004082" xlink:href="#m9e393951c8" y="53.453626"/>
     <use style="fill-opacity:0;stroke:#000000;stroke-width:0.7;" x="214.236735" xlink:href="#m9e393951c8" y="52.533273"/>
     <use style="fill-opacity:0;stroke:#000000;stroke-width:0.7;" x="217.469388" xlink:href="#m9e393951c8" y="51.636907"/>
     <use style="fill-opacity:0;stroke:#000000;stroke-width:0.7;" x="220.702041" xlink:href="#m9e393951c8" y="50.763307"/>
     <use style="fill-opacity:0;stroke:#000000;stroke-width:0.7;" x="223.934694" xlink:href="#m9e393951c8" y="49.911348"/>
     <use style="fill-opacity:0;stroke:#000000;stroke-width:0.7;" x="227.167347" xlink:href="#m9e393951c8" y="49.079981"/>
     <use style="fill-opacity:0;stroke:#000000;stroke-width:0.7;" x="230.4" xlink:href="#m9e393951c8" y="48.268235"/>
    </g>
   </g>
   <g id="patch_3">
    <path d="M 72 194.4 
L 72 36 
" style="fill:none;stroke:#000000;stroke-linecap:square;stroke-linejoin:miter;stroke-width:0.5;"/>
   </g>
   <g id="patch_4">
    <path d="M 230.4 194.4 
L 230.4 36 
" style="fill:none;stroke:#000000;stroke-linecap:square;stroke-linejoin:miter;stroke-width:0.5;"/>
   </g>
   <g id="patch_5">
    <path d="M 72 194.4 
L 230.4 194.4 
" style="fill:none;stroke:#000000;stroke-linecap:square;stroke-linejoin:miter;stroke-width:0.5;"/>
   </g>
   <g id="patch_6">
    <path d="M 72 36 
L 230.4 36 
" style="fill:none;stroke:#000000;stroke-linecap:square;stroke-linejoin:miter;stroke-width:0.5;"/>
   </g>
  </g>
 </g>
 <defs>
  <clipPath id="pa229fd521d">
   <rect height="158.4" width="158.4" x="72" y="36"/>
  </clipPath>
 </defs>
</svg>
