<?xml version="1.0" encoding="utf-8" standalone="no"?>
<!DOCTYPE svg PUBLIC "-//W3C//DTD SVG 1.1//EN"
  "http://www.w3.org/Graphics/SVG/1.1/DTD/svg11.dtd">
<svg height="252pt" version="1.1" viewBox="0 0 252 252" width="252pt" xmlns="http://www.w3.org/2000/svg" xmlns:xlink="http://www.w3.org/1999/xlink">
 <metadata>
  <rdf:RDF xmlns:cc="http://creativecommons.org/ns#" xmlns:dc="http://purl.org/dc/elements/1.1/" xmlns:rdf="http://www.w3.org/1999/02/22-rdf-syntax-ns#">
   <cc:Work>
    <dc:type rdf:resource="http://purl.org/dc/dcmitype/StillImage"/>
    <dc:date>2022-04-22T14:01:47.343510</dc:date>
    <dc:format>image/svg+xml</dc:format>
    <dc:creator>
     <cc:Agent>
      <dc:title>Matplotlib v3.4.3, https://matplotlib.org/</dc:title>
     </cc:Agent>
    </dc:creator>
   </cc:Work>
  </rdf:RDF>
 </metadata>
 <defs>
  <style type="text/css">*{stroke-linecap:butt;stroke-linejoin:round;}</style>
 </defs>
 <g id="figure_1">
  <g id="patch_1">
   <path d="M 0 252 
L 252 252 
L 252 0 
L 0 0 
z
" style="fill:none;"/>
  </g>
  <g id="axes_1">
   <g id="patch_2">
    <path d="M 72 201.6 
L 237.6 201.6 
L 237.6 36 
L 72 36 
z
" style="fill:none;"/>
   </g>
   <g id="matplotlib.axis_1">
    <g id="xtick_1">
     <g id="line2d_1">
      <defs>
       <path d="M 0 0 
L 0 -3 
" id="mf0718c5771" style="stroke:#000000;stroke-width:0.6;"/>
      </defs>
      <g>
       <use style="fill-opacity:0;stroke:#000000;stroke-width:0.6;" x="72" xlink:href="#mf0718c5771" y="201.6"/>
      </g>
     </g>
     <g id="line2d_2">
      <defs>
       <path d="M 0 0 
L 0 3 
" id="m63107079d5" style="stroke:#000000;stroke-width:0.6;"/>
      </defs>
      <g>
       <use style="fill-opacity:0;stroke:#000000;stroke-width:0.6;" x="72" xlink:href="#m63107079d5" y="36"/>
      </g>
     </g>
     <g id="text_1">
      <!-- $\mathdefault{10^{-4}}$ -->
      <g transform="translate(60.736665 216.47065)scale(0.12 -0.12)">
       <defs>
        <path d="M 1702 4058 
C 1702 4192 1696 4192 1606 4192 
C 1357 3916 979 3827 621 3827 
C 602 3827 570 3827 563 3808 
C 557 3795 557 3782 557 3648 
C 755 3648 1088 3686 1344 3839 
L 1344 461 
C 1344 236 1331 160 781 160 
L 589 160 
L 589 0 
C 896 0 1216 0 1523 0 
C 1830 0 2150 0 2458 0 
L 2458 160 
L 2266 160 
C 1715 160 1702 230 1702 458 
L 1702 4058 
z
" id="CMR17-31" transform="scale(0.015625)"/>
        <path d="M 2688 2025 
C 2688 2416 2682 3080 2413 3591 
C 2176 4039 1798 4198 1466 4198 
C 1158 4198 768 4058 525 3597 
C 269 3118 243 2524 243 2025 
C 243 1661 250 1106 448 619 
C 723 -39 1216 -128 1466 -128 
C 1760 -128 2208 -7 2470 600 
C 2662 1042 2688 1559 2688 2025 
z
M 1466 -26 
C 1056 -26 813 325 723 812 
C 653 1188 653 1738 653 2096 
C 653 2588 653 2997 736 3387 
C 858 3929 1216 4096 1466 4096 
C 1728 4096 2067 3923 2189 3400 
C 2272 3036 2278 2607 2278 2096 
C 2278 1680 2278 1169 2202 792 
C 2067 95 1690 -26 1466 -26 
z
" id="CMR17-30" transform="scale(0.015625)"/>
        <path d="M 4218 1472 
C 4326 1472 4442 1472 4442 1600 
C 4442 1728 4326 1728 4218 1728 
L 755 1728 
C 646 1728 531 1728 531 1600 
C 531 1472 646 1472 755 1472 
L 4218 1472 
z
" id="CMSY10-0" transform="scale(0.015625)"/>
        <path d="M 2150 4122 
C 2150 4256 2144 4256 2029 4256 
L 128 1254 
L 128 1088 
L 1779 1088 
L 1779 457 
C 1779 224 1766 160 1318 160 
L 1197 160 
L 1197 0 
C 1402 0 1747 0 1965 0 
C 2182 0 2528 0 2733 0 
L 2733 160 
L 2611 160 
C 2163 160 2150 224 2150 457 
L 2150 1088 
L 2803 1088 
L 2803 1254 
L 2150 1254 
L 2150 4122 
z
M 1798 3703 
L 1798 1254 
L 256 1254 
L 1798 3703 
z
" id="CMR17-34" transform="scale(0.015625)"/>
       </defs>
       <use transform="scale(0.996264)" xlink:href="#CMR17-31"/>
       <use transform="translate(45.690477 0)scale(0.996264)" xlink:href="#CMR17-30"/>
       <use transform="translate(91.380954 36.153639)scale(0.697382)" xlink:href="#CMSY10-0"/>
       <use transform="translate(145.621947 36.153639)scale(0.697382)" xlink:href="#CMR17-34"/>
      </g>
     </g>
    </g>
    <g id="xtick_2">
     <g id="line2d_3">
      <g>
       <use style="fill-opacity:0;stroke:#000000;stroke-width:0.6;" x="119.314286" xlink:href="#mf0718c5771" y="201.6"/>
      </g>
     </g>
     <g id="line2d_4">
      <g>
       <use style="fill-opacity:0;stroke:#000000;stroke-width:0.6;" x="119.314286" xlink:href="#m63107079d5" y="36"/>
      </g>
     </g>
     <g id="text_2">
      <!-- $\mathdefault{10^{-2}}$ -->
      <g transform="translate(108.050951 216.47065)scale(0.12 -0.12)">
       <defs>
        <path d="M 2669 989 
L 2554 989 
C 2490 536 2438 459 2413 420 
C 2381 369 1920 369 1830 369 
L 602 369 
C 832 619 1280 1072 1824 1597 
C 2214 1967 2669 2402 2669 3035 
C 2669 3790 2067 4224 1395 4224 
C 691 4224 262 3604 262 3030 
C 262 2780 448 2748 525 2748 
C 589 2748 781 2787 781 3010 
C 781 3207 614 3264 525 3264 
C 486 3264 448 3258 422 3245 
C 544 3790 915 4058 1306 4058 
C 1862 4058 2227 3617 2227 3035 
C 2227 2479 1901 2000 1536 1584 
L 262 146 
L 262 0 
L 2515 0 
L 2669 989 
z
" id="CMR17-32" transform="scale(0.015625)"/>
       </defs>
       <use transform="scale(0.996264)" xlink:href="#CMR17-31"/>
       <use transform="translate(45.690477 0)scale(0.996264)" xlink:href="#CMR17-30"/>
       <use transform="translate(91.380954 36.153639)scale(0.697382)" xlink:href="#CMSY10-0"/>
       <use transform="translate(145.621947 36.153639)scale(0.697382)" xlink:href="#CMR17-32"/>
      </g>
     </g>
    </g>
    <g id="xtick_3">
     <g id="line2d_5">
      <g>
       <use style="fill-opacity:0;stroke:#000000;stroke-width:0.6;" x="166.628571" xlink:href="#mf0718c5771" y="201.6"/>
      </g>
     </g>
     <g id="line2d_6">
      <g>
       <use style="fill-opacity:0;stroke:#000000;stroke-width:0.6;" x="166.628571" xlink:href="#m63107079d5" y="36"/>
      </g>
     </g>
     <g id="text_3">
      <!-- $\mathdefault{10^{0}}$ -->
      <g transform="translate(158.65849 216.47065)scale(0.12 -0.12)">
       <use transform="scale(0.996264)" xlink:href="#CMR17-31"/>
       <use transform="translate(45.690477 0)scale(0.996264)" xlink:href="#CMR17-30"/>
       <use transform="translate(91.380954 36.153639)scale(0.697382)" xlink:href="#CMR17-30"/>
      </g>
     </g>
    </g>
    <g id="xtick_4">
     <g id="line2d_7">
      <g>
       <use style="fill-opacity:0;stroke:#000000;stroke-width:0.6;" x="213.942857" xlink:href="#mf0718c5771" y="201.6"/>
      </g>
     </g>
     <g id="line2d_8">
      <g>
       <use style="fill-opacity:0;stroke:#000000;stroke-width:0.6;" x="213.942857" xlink:href="#m63107079d5" y="36"/>
      </g>
     </g>
     <g id="text_4">
      <!-- $\mathdefault{10^{2}}$ -->
      <g transform="translate(205.972775 216.47065)scale(0.12 -0.12)">
       <use transform="scale(0.996264)" xlink:href="#CMR17-31"/>
       <use transform="translate(45.690477 0)scale(0.996264)" xlink:href="#CMR17-30"/>
       <use transform="translate(91.380954 36.153639)scale(0.697382)" xlink:href="#CMR17-32"/>
      </g>
     </g>
    </g>
    <g id="text_5">
     <!-- $\dot{\gamma}~(\mathrm{s}^{-1})$ -->
     <g transform="translate(133.925338 236.868561)scale(0.144 -0.144)">
      <defs>
       <path d="M 1056 3909 
C 1056 4062 934 4170 800 4170 
C 646 4170 538 4049 538 3909 
C 538 3756 659 3648 794 3648 
C 947 3648 1056 3769 1056 3909 
z
" id="CMR17-5f" transform="scale(0.015625)"/>
       <path d="M 2419 760 
C 2406 1071 2394 1561 2150 2133 
C 2022 2452 1805 2788 1338 2788 
C 550 2788 122 1790 122 1625 
C 122 1567 166 1567 186 1567 
C 243 1567 243 1580 275 1663 
C 410 2057 819 2368 1261 2368 
C 2150 2368 2278 1383 2278 754 
C 2278 352 2234 220 2195 92 
C 2074 -302 1862 -1090 1862 -1268 
C 1862 -1319 1882 -1376 1933 -1376 
C 2029 -1376 2086 -1166 2157 -912 
C 2310 -353 2349 -73 2381 181 
C 2400 334 2765 1384 3270 2382 
C 3315 2483 3405 2655 3405 2674 
C 3405 2680 3398 2725 3341 2725 
C 3328 2725 3296 2725 3283 2699 
C 3270 2687 3046 2254 2854 1822 
C 2758 1606 2630 1320 2419 760 
z
" id="CMMI12-d" transform="scale(0.015625)"/>
       <path d="M 1958 -1561 
C 1958 -1555 1958 -1542 1939 -1523 
C 1645 -1224 858 -407 858 1581 
C 858 3569 1632 4379 1946 4697 
C 1946 4704 1958 4717 1958 4736 
C 1958 4755 1939 4768 1914 4768 
C 1843 4768 1299 4296 986 3594 
C 666 2887 576 2199 576 1588 
C 576 1128 621 351 1005 -471 
C 1312 -1135 1837 -1600 1914 -1600 
C 1946 -1600 1958 -1587 1958 -1561 
z
" id="CMR17-28" transform="scale(0.015625)"/>
       <path d="M 1978 2697 
C 1978 2813 1971 2819 1933 2819 
C 1907 2819 1901 2813 1824 2717 
C 1805 2691 1747 2626 1728 2601 
C 1523 2819 1235 2819 1126 2819 
C 416 2819 160 2447 160 2076 
C 160 1498 813 1365 998 1325 
C 1402 1243 1542 1217 1677 1101 
C 1760 1025 1901 884 1901 654 
C 1901 384 1747 38 1158 38 
C 602 38 403 460 288 1021 
C 269 1110 269 1117 218 1117 
C 166 1117 160 1110 160 983 
L 160 63 
C 160 -51 166 -58 205 -58 
C 237 -58 243 -51 275 0 
C 314 57 410 211 448 276 
C 576 103 800 -64 1158 -64 
C 1792 -64 2131 283 2131 784 
C 2131 1112 1958 1285 1875 1362 
C 1683 1561 1459 1606 1190 1657 
C 838 1735 390 1825 390 2217 
C 390 2383 480 2737 1126 2737 
C 1811 2737 1850 2094 1862 1888 
C 1869 1856 1901 1849 1920 1849 
C 1978 1849 1978 1869 1978 1978 
L 1978 2697 
z
" id="CMR17-73" transform="scale(0.015625)"/>
       <path d="M 1683 1581 
C 1683 2040 1638 2817 1254 3639 
C 947 4303 422 4768 346 4768 
C 326 4768 301 4761 301 4729 
C 301 4717 307 4710 314 4697 
C 621 4378 1402 3568 1402 1584 
C 1402 -407 627 -1217 314 -1537 
C 307 -1549 301 -1556 301 -1568 
C 301 -1600 326 -1600 346 -1600 
C 416 -1600 960 -1128 1274 -426 
C 1594 281 1683 969 1683 1581 
z
" id="CMR17-29" transform="scale(0.015625)"/>
      </defs>
      <use transform="translate(15.573755 0.006461)scale(0.996264)" xlink:href="#CMR17-5f"/>
      <use transform="scale(0.996264)" xlink:href="#CMMI12-d"/>
      <use transform="translate(83.713738 0)scale(0.996264)" xlink:href="#CMR17-28"/>
      <use transform="translate(118.994505 0)scale(0.996264)" xlink:href="#CMR17-73"/>
      <use transform="translate(154.795843 36.153639)scale(0.697382)" xlink:href="#CMSY10-0"/>
      <use transform="translate(209.036836 36.153639)scale(0.697382)" xlink:href="#CMR17-31"/>
      <use transform="translate(241.51815 0)scale(0.996264)" xlink:href="#CMR17-29"/>
     </g>
    </g>
   </g>
   <g id="matplotlib.axis_2">
    <g id="ytick_1">
     <g id="line2d_9">
      <defs>
       <path d="M 0 0 
L 3 0 
" id="me157c3a3c1" style="stroke:#000000;stroke-width:0.6;"/>
      </defs>
      <g>
       <use style="fill-opacity:0;stroke:#000000;stroke-width:0.6;" x="72" xlink:href="#me157c3a3c1" y="201.6"/>
      </g>
     </g>
     <g id="line2d_10">
      <defs>
       <path d="M 0 0 
L -3 0 
" id="me893412166" style="stroke:#000000;stroke-width:0.6;"/>
      </defs>
      <g>
       <use style="fill-opacity:0;stroke:#000000;stroke-width:0.6;" x="237.6" xlink:href="#me893412166" y="201.6"/>
      </g>
     </g>
     <g id="text_6">
      <!-- $\mathdefault{−1.0}$ -->
      <g transform="translate(41.743869 206.035325)scale(0.12 -0.12)">
       <defs>
        <path d="M 1178 307 
C 1178 492 1024 619 870 619 
C 685 619 557 466 557 313 
C 557 128 710 0 864 0 
C 1050 0 1178 153 1178 307 
z
" id="CMMI12-3a" transform="scale(0.015625)"/>
       </defs>
       <use transform="scale(0.996264)" xlink:href="#CMSY10-0"/>
       <use transform="translate(77.487468 0)scale(0.996264)" xlink:href="#CMR17-31"/>
       <use transform="translate(123.177945 0)scale(0.996264)" xlink:href="#CMMI12-3a"/>
       <use transform="translate(150.275122 0)scale(0.996264)" xlink:href="#CMR17-30"/>
      </g>
     </g>
    </g>
    <g id="ytick_2">
     <g id="line2d_11">
      <g>
       <use style="fill-opacity:0;stroke:#000000;stroke-width:0.6;" x="72" xlink:href="#me157c3a3c1" y="160.2"/>
      </g>
     </g>
     <g id="line2d_12">
      <g>
       <use style="fill-opacity:0;stroke:#000000;stroke-width:0.6;" x="237.6" xlink:href="#me893412166" y="160.2"/>
      </g>
     </g>
     <g id="text_7">
      <!-- $\mathdefault{−0.5}$ -->
      <g transform="translate(41.743869 164.635325)scale(0.12 -0.12)">
       <defs>
        <path d="M 730 3692 
C 794 3666 1056 3584 1325 3584 
C 1920 3584 2246 3911 2432 4100 
C 2432 4157 2432 4192 2394 4192 
C 2387 4192 2374 4192 2323 4163 
C 2099 4058 1837 3973 1517 3973 
C 1325 3973 1037 3999 723 4139 
C 653 4171 640 4171 634 4171 
C 602 4171 595 4164 595 4037 
L 595 2203 
C 595 2089 595 2057 659 2057 
C 691 2057 704 2070 736 2114 
C 941 2401 1222 2522 1542 2522 
C 1766 2522 2246 2382 2246 1289 
C 2246 1085 2246 715 2054 421 
C 1894 159 1645 25 1370 25 
C 947 25 518 320 403 814 
C 429 807 480 795 506 795 
C 589 795 749 840 749 1038 
C 749 1210 627 1280 506 1280 
C 358 1280 262 1190 262 1011 
C 262 454 704 -128 1382 -128 
C 2042 -128 2669 440 2669 1264 
C 2669 2030 2170 2624 1549 2624 
C 1222 2624 947 2503 730 2274 
L 730 3692 
z
" id="CMR17-35" transform="scale(0.015625)"/>
       </defs>
       <use transform="scale(0.996264)" xlink:href="#CMSY10-0"/>
       <use transform="translate(77.487468 0)scale(0.996264)" xlink:href="#CMR17-30"/>
       <use transform="translate(123.177945 0)scale(0.996264)" xlink:href="#CMMI12-3a"/>
       <use transform="translate(150.275122 0)scale(0.996264)" xlink:href="#CMR17-35"/>
      </g>
     </g>
    </g>
    <g id="ytick_3">
     <g id="line2d_13">
      <g>
       <use style="fill-opacity:0;stroke:#000000;stroke-width:0.6;" x="72" xlink:href="#me157c3a3c1" y="118.8"/>
      </g>
     </g>
     <g id="line2d_14">
      <g>
       <use style="fill-opacity:0;stroke:#000000;stroke-width:0.6;" x="237.6" xlink:href="#me893412166" y="118.8"/>
      </g>
     </g>
     <g id="text_8">
      <!-- $\mathdefault{0.0}$ -->
      <g transform="translate(51.042358 123.235325)scale(0.12 -0.12)">
       <use transform="scale(0.996264)" xlink:href="#CMR17-30"/>
       <use transform="translate(45.690477 0)scale(0.996264)" xlink:href="#CMMI12-3a"/>
       <use transform="translate(72.787654 0)scale(0.996264)" xlink:href="#CMR17-30"/>
      </g>
     </g>
    </g>
    <g id="ytick_4">
     <g id="line2d_15">
      <g>
       <use style="fill-opacity:0;stroke:#000000;stroke-width:0.6;" x="72" xlink:href="#me157c3a3c1" y="77.4"/>
      </g>
     </g>
     <g id="line2d_16">
      <g>
       <use style="fill-opacity:0;stroke:#000000;stroke-width:0.6;" x="237.6" xlink:href="#me893412166" y="77.4"/>
      </g>
     </g>
     <g id="text_9">
      <!-- $\mathdefault{0.5}$ -->
      <g transform="translate(51.042358 81.835325)scale(0.12 -0.12)">
       <use transform="scale(0.996264)" xlink:href="#CMR17-30"/>
       <use transform="translate(45.690477 0)scale(0.996264)" xlink:href="#CMMI12-3a"/>
       <use transform="translate(72.787654 0)scale(0.996264)" xlink:href="#CMR17-35"/>
      </g>
     </g>
    </g>
    <g id="ytick_5">
     <g id="line2d_17">
      <g>
       <use style="fill-opacity:0;stroke:#000000;stroke-width:0.6;" x="72" xlink:href="#me157c3a3c1" y="36"/>
      </g>
     </g>
     <g id="line2d_18">
      <g>
       <use style="fill-opacity:0;stroke:#000000;stroke-width:0.6;" x="237.6" xlink:href="#me893412166" y="36"/>
      </g>
     </g>
     <g id="text_10">
      <!-- $\mathdefault{1.0}$ -->
      <g transform="translate(51.042358 40.435325)scale(0.12 -0.12)">
       <use transform="scale(0.996264)" xlink:href="#CMR17-31"/>
       <use transform="translate(45.690477 0)scale(0.996264)" xlink:href="#CMMI12-3a"/>
       <use transform="translate(72.787654 0)scale(0.996264)" xlink:href="#CMR17-30"/>
      </g>
     </g>
    </g>
    <g id="ytick_6">
     <g id="line2d_19">
      <defs>
       <path d="M 0 0 
L 2 0 
" id="m3aaa56a4b5" style="stroke:#000000;stroke-width:0.4;"/>
      </defs>
      <g>
       <use style="fill-opacity:0;stroke:#000000;stroke-width:0.4;" x="72" xlink:href="#m3aaa56a4b5" y="193.32"/>
      </g>
     </g>
    </g>
    <g id="ytick_7">
     <g id="line2d_20">
      <g>
       <use style="fill-opacity:0;stroke:#000000;stroke-width:0.4;" x="72" xlink:href="#m3aaa56a4b5" y="185.04"/>
      </g>
     </g>
    </g>
    <g id="ytick_8">
     <g id="line2d_21">
      <g>
       <use style="fill-opacity:0;stroke:#000000;stroke-width:0.4;" x="72" xlink:href="#m3aaa56a4b5" y="176.76"/>
      </g>
     </g>
    </g>
    <g id="ytick_9">
     <g id="line2d_22">
      <g>
       <use style="fill-opacity:0;stroke:#000000;stroke-width:0.4;" x="72" xlink:href="#m3aaa56a4b5" y="168.48"/>
      </g>
     </g>
    </g>
    <g id="ytick_10">
     <g id="line2d_23">
      <g>
       <use style="fill-opacity:0;stroke:#000000;stroke-width:0.4;" x="72" xlink:href="#m3aaa56a4b5" y="151.92"/>
      </g>
     </g>
    </g>
    <g id="ytick_11">
     <g id="line2d_24">
      <g>
       <use style="fill-opacity:0;stroke:#000000;stroke-width:0.4;" x="72" xlink:href="#m3aaa56a4b5" y="143.64"/>
      </g>
     </g>
    </g>
    <g id="ytick_12">
     <g id="line2d_25">
      <g>
       <use style="fill-opacity:0;stroke:#000000;stroke-width:0.4;" x="72" xlink:href="#m3aaa56a4b5" y="135.36"/>
      </g>
     </g>
    </g>
    <g id="ytick_13">
     <g id="line2d_26">
      <g>
       <use style="fill-opacity:0;stroke:#000000;stroke-width:0.4;" x="72" xlink:href="#m3aaa56a4b5" y="127.08"/>
      </g>
     </g>
    </g>
    <g id="ytick_14">
     <g id="line2d_27">
      <g>
       <use style="fill-opacity:0;stroke:#000000;stroke-width:0.4;" x="72" xlink:href="#m3aaa56a4b5" y="110.52"/>
      </g>
     </g>
    </g>
    <g id="ytick_15">
     <g id="line2d_28">
      <g>
       <use style="fill-opacity:0;stroke:#000000;stroke-width:0.4;" x="72" xlink:href="#m3aaa56a4b5" y="102.24"/>
      </g>
     </g>
    </g>
    <g id="ytick_16">
     <g id="line2d_29">
      <g>
       <use style="fill-opacity:0;stroke:#000000;stroke-width:0.4;" x="72" xlink:href="#m3aaa56a4b5" y="93.96"/>
      </g>
     </g>
    </g>
    <g id="ytick_17">
     <g id="line2d_30">
      <g>
       <use style="fill-opacity:0;stroke:#000000;stroke-width:0.4;" x="72" xlink:href="#m3aaa56a4b5" y="85.68"/>
      </g>
     </g>
    </g>
    <g id="ytick_18">
     <g id="line2d_31">
      <g>
       <use style="fill-opacity:0;stroke:#000000;stroke-width:0.4;" x="72" xlink:href="#m3aaa56a4b5" y="69.12"/>
      </g>
     </g>
    </g>
    <g id="ytick_19">
     <g id="line2d_32">
      <g>
       <use style="fill-opacity:0;stroke:#000000;stroke-width:0.4;" x="72" xlink:href="#m3aaa56a4b5" y="60.84"/>
      </g>
     </g>
    </g>
    <g id="ytick_20">
     <g id="line2d_33">
      <g>
       <use style="fill-opacity:0;stroke:#000000;stroke-width:0.4;" x="72" xlink:href="#m3aaa56a4b5" y="52.56"/>
      </g>
     </g>
    </g>
    <g id="ytick_21">
     <g id="line2d_34">
      <g>
       <use style="fill-opacity:0;stroke:#000000;stroke-width:0.4;" x="72" xlink:href="#m3aaa56a4b5" y="44.28"/>
      </g>
     </g>
    </g>
    <g id="text_11">
     <!-- $\mathrm{residual}$ -->
     <g transform="translate(32.518144 142.641123)rotate(-90)scale(0.144 -0.144)">
      <defs>
       <path d="M 960 1497 
C 960 2112 1222 2688 1702 2688 
C 1747 2688 1792 2682 1837 2662 
C 1837 2662 1696 2617 1696 2452 
C 1696 2298 1818 2234 1914 2234 
C 1990 2234 2131 2279 2131 2458 
C 2131 2663 1926 2790 1709 2790 
C 1222 2790 1011 2317 947 2093 
L 941 2093 
L 941 2790 
L 198 2720 
L 198 2554 
C 576 2554 634 2515 634 2208 
L 634 428 
C 634 184 608 153 198 153 
L 198 -13 
C 352 0 646 0 813 0 
C 998 0 1325 0 1498 -13 
L 1498 153 
C 1037 153 960 153 960 440 
L 960 1497 
z
" id="CMR17-72" transform="scale(0.015625)"/>
       <path d="M 2438 1472 
C 2464 1498 2464 1511 2464 1576 
C 2464 2238 2118 2816 1389 2816 
C 710 2816 173 2169 173 1383 
C 173 551 781 -64 1459 -64 
C 2176 -64 2458 607 2458 740 
C 2458 784 2419 784 2406 784 
C 2362 784 2355 771 2330 696 
C 2189 265 1837 51 1504 51 
C 1229 51 954 203 781 480 
C 582 803 582 1176 582 1472 
L 2438 1472 
z
M 589 1568 
C 634 2505 1126 2714 1382 2714 
C 1818 2714 2112 2297 2118 1568 
L 589 1568 
z
" id="CMR17-65" transform="scale(0.015625)"/>
       <path d="M 992 3909 
C 992 4049 877 4170 730 4170 
C 589 4170 467 4056 467 3909 
C 467 3769 582 3648 730 3648 
C 870 3648 992 3763 992 3909 
z
M 243 2706 
L 243 2541 
C 602 2541 653 2502 653 2197 
L 653 427 
C 653 184 627 153 218 153 
L 218 -13 
C 371 0 646 0 806 0 
C 960 0 1222 0 1370 -13 
L 1370 153 
C 992 153 979 191 979 420 
L 979 2776 
L 243 2706 
z
" id="CMR17-69" transform="scale(0.015625)"/>
       <path d="M 1869 4326 
L 1869 4160 
C 2246 4160 2304 4122 2304 3820 
L 2304 2345 
C 2278 2377 2016 2790 1498 2790 
C 845 2790 211 2208 211 1364 
C 211 525 806 -64 1434 -64 
C 1978 -64 2259 337 2291 380 
L 2291 -63 
L 3066 -63 
L 3066 128 
C 2688 128 2630 166 2630 473 
L 2630 4396 
L 1869 4326 
z
M 2291 755 
C 2291 563 2176 390 2029 262 
C 1811 70 1594 38 1472 38 
C 1286 38 621 134 621 1356 
C 621 2612 1363 2688 1530 2688 
C 1824 2688 2061 2522 2208 2291 
C 2291 2157 2291 2138 2291 2023 
L 2291 755 
z
" id="CMR17-64" transform="scale(0.015625)"/>
       <path d="M 1882 2693 
L 1882 2528 
C 2259 2528 2317 2489 2317 2186 
L 2317 1032 
C 2317 500 2029 38 1555 38 
C 1030 38 986 348 986 678 
L 986 2763 
L 211 2693 
L 211 2528 
C 467 2528 640 2528 646 2274 
L 646 1058 
C 646 633 646 361 813 183 
C 896 101 1056 -64 1517 -64 
C 2061 -64 2272 377 2323 506 
L 2330 506 
L 2330 -63 
L 3091 -63 
L 3091 128 
C 2714 128 2656 166 2656 473 
L 2656 2763 
L 1882 2693 
z
" id="CMR17-75" transform="scale(0.015625)"/>
       <path d="M 2304 1653 
C 2304 2072 2304 2294 2035 2543 
C 1798 2752 1523 2816 1306 2816 
C 800 2816 435 2407 435 1971 
C 435 1728 627 1728 666 1728 
C 749 1728 896 1778 896 1954 
C 896 2112 774 2181 666 2181 
C 640 2181 608 2174 589 2168 
C 723 2592 1069 2714 1293 2714 
C 1613 2714 1965 2429 1965 1885 
L 1965 1600 
C 1587 1600 1133 1549 774 1357 
C 371 1133 256 813 256 570 
C 256 77 832 -64 1171 -64 
C 1523 -64 1850 139 1990 511 
C 2003 233 2182 -18 2464 -18 
C 2598 -18 2938 70 2938 567 
L 2938 920 
L 2822 920 
L 2822 562 
C 2822 178 2650 128 2566 128 
C 2304 128 2304 458 2304 738 
L 2304 1653 
z
M 1965 870 
C 1965 317 1568 38 1216 38 
C 896 38 646 275 646 570 
C 646 761 730 1100 1101 1305 
C 1408 1478 1760 1504 1965 1504 
L 1965 870 
z
" id="CMR17-61" transform="scale(0.015625)"/>
       <path d="M 979 4396 
L 218 4326 
L 218 4160 
C 595 4160 653 4122 653 3817 
L 653 426 
C 653 184 627 153 218 153 
L 218 -13 
C 371 0 653 0 813 0 
C 979 0 1261 0 1414 -13 
L 1414 153 
C 1005 153 979 178 979 426 
L 979 4396 
z
" id="CMR17-6c" transform="scale(0.015625)"/>
      </defs>
      <use transform="scale(0.996264)" xlink:href="#CMR17-72"/>
      <use transform="translate(35.280768 0)scale(0.996264)" xlink:href="#CMR17-65"/>
      <use transform="translate(75.766428 0)scale(0.996264)" xlink:href="#CMR17-73"/>
      <use transform="translate(111.567766 0)scale(0.996264)" xlink:href="#CMR17-69"/>
      <use transform="translate(136.438824 0)scale(0.996264)" xlink:href="#CMR17-64"/>
      <use transform="translate(187.334194 0)scale(0.996264)" xlink:href="#CMR17-75"/>
      <use transform="translate(238.229564 0)scale(0.996264)" xlink:href="#CMR17-61"/>
      <use transform="translate(283.920041 0)scale(0.996264)" xlink:href="#CMR17-6c"/>
     </g>
    </g>
   </g>
   <g id="line2d_35">
    <defs>
     <path d="M -2.25 2.25 
L 2.25 2.25 
L 2.25 -2.25 
L -2.25 -2.25 
z
" id="mdbb8a096ea" style="stroke:#ff0000;stroke-linejoin:miter;stroke-width:0.7;"/>
    </defs>
    <g clip-path="url(#pb678bb75ab)">
     <use style="fill:#ff0000;stroke:#ff0000;stroke-linejoin:miter;stroke-width:0.7;" x="72.012517" xlink:href="#mdbb8a096ea" y="141.717038"/>
     <use style="fill:#ff0000;stroke:#ff0000;stroke-linejoin:miter;stroke-width:0.7;" x="74.359605" xlink:href="#mdbb8a096ea" y="138.997039"/>
     <use style="fill:#ff0000;stroke:#ff0000;stroke-linejoin:miter;stroke-width:0.7;" x="76.717565" xlink:href="#mdbb8a096ea" y="138.970497"/>
     <use style="fill:#ff0000;stroke:#ff0000;stroke-linejoin:miter;stroke-width:0.7;" x="79.115672" xlink:href="#mdbb8a096ea" y="135.903779"/>
     <use style="fill:#ff0000;stroke:#ff0000;stroke-linejoin:miter;stroke-width:0.7;" x="81.443122" xlink:href="#mdbb8a096ea" y="134.465498"/>
     <use style="fill:#ff0000;stroke:#ff0000;stroke-linejoin:miter;stroke-width:0.7;" x="83.820356" xlink:href="#mdbb8a096ea" y="134.244013"/>
     <use style="fill:#ff0000;stroke:#ff0000;stroke-linejoin:miter;stroke-width:0.7;" x="86.197306" xlink:href="#mdbb8a096ea" y="135.593196"/>
     <use style="fill:#ff0000;stroke:#ff0000;stroke-linejoin:miter;stroke-width:0.7;" x="88.54715" xlink:href="#mdbb8a096ea" y="133.79681"/>
     <use style="fill:#ff0000;stroke:#ff0000;stroke-linejoin:miter;stroke-width:0.7;" x="90.933525" xlink:href="#mdbb8a096ea" y="130.184554"/>
     <use style="fill:#ff0000;stroke:#ff0000;stroke-linejoin:miter;stroke-width:0.7;" x="93.292687" xlink:href="#mdbb8a096ea" y="128.287946"/>
     <use style="fill:#ff0000;stroke:#ff0000;stroke-linejoin:miter;stroke-width:0.7;" x="95.65541" xlink:href="#mdbb8a096ea" y="127.767422"/>
     <use style="fill:#ff0000;stroke:#ff0000;stroke-linejoin:miter;stroke-width:0.7;" x="98.023213" xlink:href="#mdbb8a096ea" y="126.509199"/>
     <use style="fill:#ff0000;stroke:#ff0000;stroke-linejoin:miter;stroke-width:0.7;" x="100.387157" xlink:href="#mdbb8a096ea" y="125.059768"/>
     <use style="fill:#ff0000;stroke:#ff0000;stroke-linejoin:miter;stroke-width:0.7;" x="102.755165" xlink:href="#mdbb8a096ea" y="123.793867"/>
     <use style="fill:#ff0000;stroke:#ff0000;stroke-linejoin:miter;stroke-width:0.7;" x="105.121663" xlink:href="#mdbb8a096ea" y="122.668601"/>
     <use style="fill:#ff0000;stroke:#ff0000;stroke-linejoin:miter;stroke-width:0.7;" x="107.483252" xlink:href="#mdbb8a096ea" y="121.565108"/>
     <use style="fill:#ff0000;stroke:#ff0000;stroke-linejoin:miter;stroke-width:0.7;" x="109.852619" xlink:href="#mdbb8a096ea" y="120.542055"/>
     <use style="fill:#ff0000;stroke:#ff0000;stroke-linejoin:miter;stroke-width:0.7;" x="112.219524" xlink:href="#mdbb8a096ea" y="119.532592"/>
     <use style="fill:#ff0000;stroke:#ff0000;stroke-linejoin:miter;stroke-width:0.7;" x="114.583377" xlink:href="#mdbb8a096ea" y="118.402573"/>
     <use style="fill:#ff0000;stroke:#ff0000;stroke-linejoin:miter;stroke-width:0.7;" x="116.949579" xlink:href="#mdbb8a096ea" y="117.161403"/>
     <use style="fill:#ff0000;stroke:#ff0000;stroke-linejoin:miter;stroke-width:0.7;" x="119.314522" xlink:href="#mdbb8a096ea" y="115.991184"/>
     <use style="fill:#ff0000;stroke:#ff0000;stroke-linejoin:miter;stroke-width:0.7;" x="121.679482" xlink:href="#mdbb8a096ea" y="114.969497"/>
     <use style="fill:#ff0000;stroke:#ff0000;stroke-linejoin:miter;stroke-width:0.7;" x="124.045227" xlink:href="#mdbb8a096ea" y="113.923037"/>
     <use style="fill:#ff0000;stroke:#ff0000;stroke-linejoin:miter;stroke-width:0.7;" x="126.41135" xlink:href="#mdbb8a096ea" y="112.933729"/>
     <use style="fill:#ff0000;stroke:#ff0000;stroke-linejoin:miter;stroke-width:0.7;" x="128.77708" xlink:href="#mdbb8a096ea" y="111.969226"/>
     <use style="fill:#ff0000;stroke:#ff0000;stroke-linejoin:miter;stroke-width:0.7;" x="131.142673" xlink:href="#mdbb8a096ea" y="110.963932"/>
     <use style="fill:#ff0000;stroke:#ff0000;stroke-linejoin:miter;stroke-width:0.7;" x="133.508404" xlink:href="#mdbb8a096ea" y="110.247984"/>
     <use style="fill:#ff0000;stroke:#ff0000;stroke-linejoin:miter;stroke-width:0.7;" x="135.874543" xlink:href="#mdbb8a096ea" y="109.863717"/>
     <use style="fill:#ff0000;stroke:#ff0000;stroke-linejoin:miter;stroke-width:0.7;" x="138.240073" xlink:href="#mdbb8a096ea" y="109.40494"/>
     <use style="fill:#ff0000;stroke:#ff0000;stroke-linejoin:miter;stroke-width:0.7;" x="140.605653" xlink:href="#mdbb8a096ea" y="108.741202"/>
     <use style="fill:#ff0000;stroke:#ff0000;stroke-linejoin:miter;stroke-width:0.7;" x="142.971552" xlink:href="#mdbb8a096ea" y="108.815471"/>
     <use style="fill:#ff0000;stroke:#ff0000;stroke-linejoin:miter;stroke-width:0.7;" x="145.337148" xlink:href="#mdbb8a096ea" y="108.395316"/>
     <use style="fill:#ff0000;stroke:#ff0000;stroke-linejoin:miter;stroke-width:0.7;" x="147.702849" xlink:href="#mdbb8a096ea" y="108.522298"/>
     <use style="fill:#ff0000;stroke:#ff0000;stroke-linejoin:miter;stroke-width:0.7;" x="150.068518" xlink:href="#mdbb8a096ea" y="108.628508"/>
     <use style="fill:#ff0000;stroke:#ff0000;stroke-linejoin:miter;stroke-width:0.7;" x="152.434247" xlink:href="#mdbb8a096ea" y="108.760139"/>
     <use style="fill:#ff0000;stroke:#ff0000;stroke-linejoin:miter;stroke-width:0.7;" x="154.799995" xlink:href="#mdbb8a096ea" y="109.029917"/>
     <use style="fill:#ff0000;stroke:#ff0000;stroke-linejoin:miter;stroke-width:0.7;" x="157.165756" xlink:href="#mdbb8a096ea" y="109.234639"/>
     <use style="fill:#ff0000;stroke:#ff0000;stroke-linejoin:miter;stroke-width:0.7;" x="159.531418" xlink:href="#mdbb8a096ea" y="109.596662"/>
     <use style="fill:#ff0000;stroke:#ff0000;stroke-linejoin:miter;stroke-width:0.7;" x="161.897152" xlink:href="#mdbb8a096ea" y="110.054189"/>
     <use style="fill:#ff0000;stroke:#ff0000;stroke-linejoin:miter;stroke-width:0.7;" x="164.262844" xlink:href="#mdbb8a096ea" y="110.540159"/>
     <use style="fill:#ff0000;stroke:#ff0000;stroke-linejoin:miter;stroke-width:0.7;" x="166.628602" xlink:href="#mdbb8a096ea" y="111.040357"/>
     <use style="fill:#ff0000;stroke:#ff0000;stroke-linejoin:miter;stroke-width:0.7;" x="168.994291" xlink:href="#mdbb8a096ea" y="111.583687"/>
     <use style="fill:#ff0000;stroke:#ff0000;stroke-linejoin:miter;stroke-width:0.7;" x="171.359992" xlink:href="#mdbb8a096ea" y="112.121827"/>
     <use style="fill:#ff0000;stroke:#ff0000;stroke-linejoin:miter;stroke-width:0.7;" x="173.725708" xlink:href="#mdbb8a096ea" y="112.728472"/>
     <use style="fill:#ff0000;stroke:#ff0000;stroke-linejoin:miter;stroke-width:0.7;" x="176.091431" xlink:href="#mdbb8a096ea" y="113.304282"/>
     <use style="fill:#ff0000;stroke:#ff0000;stroke-linejoin:miter;stroke-width:0.7;" x="178.457131" xlink:href="#mdbb8a096ea" y="113.878222"/>
     <use style="fill:#ff0000;stroke:#ff0000;stroke-linejoin:miter;stroke-width:0.7;" x="180.82285" xlink:href="#mdbb8a096ea" y="114.399966"/>
     <use style="fill:#ff0000;stroke:#ff0000;stroke-linejoin:miter;stroke-width:0.7;" x="183.188579" xlink:href="#mdbb8a096ea" y="114.870633"/>
     <use style="fill:#ff0000;stroke:#ff0000;stroke-linejoin:miter;stroke-width:0.7;" x="185.554283" xlink:href="#mdbb8a096ea" y="115.473053"/>
     <use style="fill:#ff0000;stroke:#ff0000;stroke-linejoin:miter;stroke-width:0.7;" x="187.919989" xlink:href="#mdbb8a096ea" y="116.029545"/>
     <use style="fill:#ff0000;stroke:#ff0000;stroke-linejoin:miter;stroke-width:0.7;" x="190.285708" xlink:href="#mdbb8a096ea" y="116.542241"/>
     <use style="fill:#ff0000;stroke:#ff0000;stroke-linejoin:miter;stroke-width:0.7;" x="192.651417" xlink:href="#mdbb8a096ea" y="117.2028"/>
     <use style="fill:#ff0000;stroke:#ff0000;stroke-linejoin:miter;stroke-width:0.7;" x="195.017135" xlink:href="#mdbb8a096ea" y="117.910759"/>
     <use style="fill:#ff0000;stroke:#ff0000;stroke-linejoin:miter;stroke-width:0.7;" x="197.382856" xlink:href="#mdbb8a096ea" y="118.38318"/>
     <use style="fill:#ff0000;stroke:#ff0000;stroke-linejoin:miter;stroke-width:0.7;" x="199.748566" xlink:href="#mdbb8a096ea" y="119.030432"/>
     <use style="fill:#ff0000;stroke:#ff0000;stroke-linejoin:miter;stroke-width:0.7;" x="202.114284" xlink:href="#mdbb8a096ea" y="119.677551"/>
     <use style="fill:#ff0000;stroke:#ff0000;stroke-linejoin:miter;stroke-width:0.7;" x="204.479998" xlink:href="#mdbb8a096ea" y="120.299992"/>
     <use style="fill:#ff0000;stroke:#ff0000;stroke-linejoin:miter;stroke-width:0.7;" x="206.845714" xlink:href="#mdbb8a096ea" y="120.899562"/>
     <use style="fill:#ff0000;stroke:#ff0000;stroke-linejoin:miter;stroke-width:0.7;" x="209.211425" xlink:href="#mdbb8a096ea" y="121.415514"/>
     <use style="fill:#ff0000;stroke:#ff0000;stroke-linejoin:miter;stroke-width:0.7;" x="211.577142" xlink:href="#mdbb8a096ea" y="121.867425"/>
     <use style="fill:#ff0000;stroke:#ff0000;stroke-linejoin:miter;stroke-width:0.7;" x="213.942857" xlink:href="#mdbb8a096ea" y="122.177058"/>
     <use style="fill:#ff0000;stroke:#ff0000;stroke-linejoin:miter;stroke-width:0.7;" x="216.308568" xlink:href="#mdbb8a096ea" y="122.34587"/>
     <use style="fill:#ff0000;stroke:#ff0000;stroke-linejoin:miter;stroke-width:0.7;" x="218.674284" xlink:href="#mdbb8a096ea" y="122.358718"/>
     <use style="fill:#ff0000;stroke:#ff0000;stroke-linejoin:miter;stroke-width:0.7;" x="221.039998" xlink:href="#mdbb8a096ea" y="122.178753"/>
     <use style="fill:#ff0000;stroke:#ff0000;stroke-linejoin:miter;stroke-width:0.7;" x="223.405713" xlink:href="#mdbb8a096ea" y="121.785111"/>
     <use style="fill:#ff0000;stroke:#ff0000;stroke-linejoin:miter;stroke-width:0.7;" x="225.771426" xlink:href="#mdbb8a096ea" y="121.178185"/>
     <use style="fill:#ff0000;stroke:#ff0000;stroke-linejoin:miter;stroke-width:0.7;" x="228.137141" xlink:href="#mdbb8a096ea" y="120.355305"/>
     <use style="fill:#ff0000;stroke:#ff0000;stroke-linejoin:miter;stroke-width:0.7;" x="230.502859" xlink:href="#mdbb8a096ea" y="119.309647"/>
     <use style="fill:#ff0000;stroke:#ff0000;stroke-linejoin:miter;stroke-width:0.7;" x="232.868571" xlink:href="#mdbb8a096ea" y="118.021094"/>
     <use style="fill:#ff0000;stroke:#ff0000;stroke-linejoin:miter;stroke-width:0.7;" x="235.234284" xlink:href="#mdbb8a096ea" y="116.404432"/>
     <use style="fill:#ff0000;stroke:#ff0000;stroke-linejoin:miter;stroke-width:0.7;" x="237.599999" xlink:href="#mdbb8a096ea" y="114.277619"/>
    </g>
   </g>
   <g id="line2d_36">
    <defs>
     <path d="M 0 2.25 
C 0.596707 2.25 1.169055 2.012926 1.59099 1.59099 
C 2.012926 1.169055 2.25 0.596707 2.25 0 
C 2.25 -0.596707 2.012926 -1.169055 1.59099 -1.59099 
C 1.169055 -2.012926 0.596707 -2.25 0 -2.25 
C -0.596707 -2.25 -1.169055 -2.012926 -1.59099 -1.59099 
C -2.012926 -1.169055 -2.25 -0.596707 -2.25 0 
C -2.25 0.596707 -2.012926 1.169055 -1.59099 1.59099 
C -1.169055 2.012926 -0.596707 2.25 0 2.25 
z
" id="me7bb98e19a" style="stroke:#65b2c6;stroke-width:0.7;"/>
    </defs>
    <g clip-path="url(#pb678bb75ab)">
     <use style="fill:#65b2c6;stroke:#65b2c6;stroke-width:0.7;" x="72.012517" xlink:href="#me7bb98e19a" y="121.756838"/>
     <use style="fill:#65b2c6;stroke:#65b2c6;stroke-width:0.7;" x="74.359605" xlink:href="#me7bb98e19a" y="119.919341"/>
     <use style="fill:#65b2c6;stroke:#65b2c6;stroke-width:0.7;" x="76.717565" xlink:href="#me7bb98e19a" y="120.307081"/>
     <use style="fill:#65b2c6;stroke:#65b2c6;stroke-width:0.7;" x="79.115672" xlink:href="#me7bb98e19a" y="118.242453"/>
     <use style="fill:#65b2c6;stroke:#65b2c6;stroke-width:0.7;" x="81.443122" xlink:href="#me7bb98e19a" y="117.52913"/>
     <use style="fill:#65b2c6;stroke:#65b2c6;stroke-width:0.7;" x="83.820356" xlink:href="#me7bb98e19a" y="117.873767"/>
     <use style="fill:#65b2c6;stroke:#65b2c6;stroke-width:0.7;" x="86.197306" xlink:href="#me7bb98e19a" y="119.586999"/>
     <use style="fill:#65b2c6;stroke:#65b2c6;stroke-width:0.7;" x="88.54715" xlink:href="#me7bb98e19a" y="118.706868"/>
     <use style="fill:#65b2c6;stroke:#65b2c6;stroke-width:0.7;" x="90.933525" xlink:href="#me7bb98e19a" y="116.324636"/>
     <use style="fill:#65b2c6;stroke:#65b2c6;stroke-width:0.7;" x="93.292687" xlink:href="#me7bb98e19a" y="115.419865"/>
     <use style="fill:#65b2c6;stroke:#65b2c6;stroke-width:0.7;" x="95.65541" xlink:href="#me7bb98e19a" y="115.746143"/>
     <use style="fill:#65b2c6;stroke:#65b2c6;stroke-width:0.7;" x="98.023213" xlink:href="#me7bb98e19a" y="115.485394"/>
     <use style="fill:#65b2c6;stroke:#65b2c6;stroke-width:0.7;" x="100.387157" xlink:href="#me7bb98e19a" y="115.099903"/>
     <use style="fill:#65b2c6;stroke:#65b2c6;stroke-width:0.7;" x="102.755165" xlink:href="#me7bb98e19a" y="114.923067"/>
     <use style="fill:#65b2c6;stroke:#65b2c6;stroke-width:0.7;" x="105.121663" xlink:href="#me7bb98e19a" y="114.918453"/>
     <use style="fill:#65b2c6;stroke:#65b2c6;stroke-width:0.7;" x="107.483252" xlink:href="#me7bb98e19a" y="114.977725"/>
     <use style="fill:#65b2c6;stroke:#65b2c6;stroke-width:0.7;" x="109.852619" xlink:href="#me7bb98e19a" y="115.159526"/>
     <use style="fill:#65b2c6;stroke:#65b2c6;stroke-width:0.7;" x="112.219524" xlink:href="#me7bb98e19a" y="115.394681"/>
     <use style="fill:#65b2c6;stroke:#65b2c6;stroke-width:0.7;" x="114.583377" xlink:href="#me7bb98e19a" y="115.548098"/>
     <use style="fill:#65b2c6;stroke:#65b2c6;stroke-width:0.7;" x="116.949579" xlink:href="#me7bb98e19a" y="115.618733"/>
     <use style="fill:#65b2c6;stroke:#65b2c6;stroke-width:0.7;" x="119.314522" xlink:href="#me7bb98e19a" y="115.771338"/>
     <use style="fill:#65b2c6;stroke:#65b2c6;stroke-width:0.7;" x="121.679482" xlink:href="#me7bb98e19a" y="116.077281"/>
     <use style="fill:#65b2c6;stroke:#65b2c6;stroke-width:0.7;" x="124.045227" xlink:href="#me7bb98e19a" y="116.352685"/>
     <use style="fill:#65b2c6;stroke:#65b2c6;stroke-width:0.7;" x="126.41135" xlink:href="#me7bb98e19a" y="116.667105"/>
     <use style="fill:#65b2c6;stroke:#65b2c6;stroke-width:0.7;" x="128.77708" xlink:href="#me7bb98e19a" y="116.972244"/>
     <use style="fill:#65b2c6;stroke:#65b2c6;stroke-width:0.7;" x="131.142673" xlink:href="#me7bb98e19a" y="117.180985"/>
     <use style="fill:#65b2c6;stroke:#65b2c6;stroke-width:0.7;" x="133.508404" xlink:href="#me7bb98e19a" y="117.63626"/>
     <use style="fill:#65b2c6;stroke:#65b2c6;stroke-width:0.7;" x="135.874543" xlink:href="#me7bb98e19a" y="118.380999"/>
     <use style="fill:#65b2c6;stroke:#65b2c6;stroke-width:0.7;" x="138.240073" xlink:href="#me7bb98e19a" y="118.952074"/>
     <use style="fill:#65b2c6;stroke:#65b2c6;stroke-width:0.7;" x="140.605653" xlink:href="#me7bb98e19a" y="119.179252"/>
     <use style="fill:#65b2c6;stroke:#65b2c6;stroke-width:0.7;" x="142.971552" xlink:href="#me7bb98e19a" y="120.128397"/>
     <use style="fill:#65b2c6;stroke:#65b2c6;stroke-width:0.7;" x="145.337148" xlink:href="#me7bb98e19a" y="120.372466"/>
     <use style="fill:#65b2c6;stroke:#65b2c6;stroke-width:0.7;" x="147.702849" xlink:href="#me7bb98e19a" y="121.108033"/>
     <use style="fill:#65b2c6;stroke:#65b2c6;stroke-width:0.7;" x="150.068518" xlink:href="#me7bb98e19a" y="121.667616"/>
     <use style="fill:#65b2c6;stroke:#65b2c6;stroke-width:0.7;" x="152.434247" xlink:href="#me7bb98e19a" y="122.098578"/>
     <use style="fill:#65b2c6;stroke:#65b2c6;stroke-width:0.7;" x="154.799995" xlink:href="#me7bb98e19a" y="122.531583"/>
     <use style="fill:#65b2c6;stroke:#65b2c6;stroke-width:0.7;" x="157.165756" xlink:href="#me7bb98e19a" y="122.726473"/>
     <use style="fill:#65b2c6;stroke:#65b2c6;stroke-width:0.7;" x="159.531418" xlink:href="#me7bb98e19a" y="122.95009"/>
     <use style="fill:#65b2c6;stroke:#65b2c6;stroke-width:0.7;" x="161.897152" xlink:href="#me7bb98e19a" y="123.134823"/>
     <use style="fill:#65b2c6;stroke:#65b2c6;stroke-width:0.7;" x="164.262844" xlink:href="#me7bb98e19a" y="123.209694"/>
     <use style="fill:#65b2c6;stroke:#65b2c6;stroke-width:0.7;" x="166.628602" xlink:href="#me7bb98e19a" y="123.168773"/>
     <use style="fill:#65b2c6;stroke:#65b2c6;stroke-width:0.7;" x="168.994291" xlink:href="#me7bb98e19a" y="123.058083"/>
     <use style="fill:#65b2c6;stroke:#65b2c6;stroke-width:0.7;" x="171.359992" xlink:href="#me7bb98e19a" y="122.835493"/>
     <use style="fill:#65b2c6;stroke:#65b2c6;stroke-width:0.7;" x="173.725708" xlink:href="#me7bb98e19a" y="122.599559"/>
     <use style="fill:#65b2c6;stroke:#65b2c6;stroke-width:0.7;" x="176.091431" xlink:href="#me7bb98e19a" y="122.252477"/>
     <use style="fill:#65b2c6;stroke:#65b2c6;stroke-width:0.7;" x="178.457131" xlink:href="#me7bb98e19a" y="121.843102"/>
     <use style="fill:#65b2c6;stroke:#65b2c6;stroke-width:0.7;" x="180.82285" xlink:href="#me7bb98e19a" y="121.332301"/>
     <use style="fill:#65b2c6;stroke:#65b2c6;stroke-width:0.7;" x="183.188579" xlink:href="#me7bb98e19a" y="120.738721"/>
     <use style="fill:#65b2c6;stroke:#65b2c6;stroke-width:0.7;" x="185.554283" xlink:href="#me7bb98e19a" y="120.273167"/>
     <use style="fill:#65b2c6;stroke:#65b2c6;stroke-width:0.7;" x="187.919989" xlink:href="#me7bb98e19a" y="119.758402"/>
     <use style="fill:#65b2c6;stroke:#65b2c6;stroke-width:0.7;" x="190.285708" xlink:href="#me7bb98e19a" y="119.212221"/>
     <use style="fill:#65b2c6;stroke:#65b2c6;stroke-width:0.7;" x="192.651417" xlink:href="#me7bb98e19a" y="118.845089"/>
     <use style="fill:#65b2c6;stroke:#65b2c6;stroke-width:0.7;" x="195.017135" xlink:href="#me7bb98e19a" y="118.563032"/>
     <use style="fill:#65b2c6;stroke:#65b2c6;stroke-width:0.7;" x="197.382856" xlink:href="#me7bb98e19a" y="118.095244"/>
     <use style="fill:#65b2c6;stroke:#65b2c6;stroke-width:0.7;" x="199.748566" xlink:href="#me7bb98e19a" y="117.866575"/>
     <use style="fill:#65b2c6;stroke:#65b2c6;stroke-width:0.7;" x="202.114284" xlink:href="#me7bb98e19a" y="117.713287"/>
     <use style="fill:#65b2c6;stroke:#65b2c6;stroke-width:0.7;" x="204.479998" xlink:href="#me7bb98e19a" y="117.624405"/>
     <use style="fill:#65b2c6;stroke:#65b2c6;stroke-width:0.7;" x="206.845714" xlink:href="#me7bb98e19a" y="117.615283"/>
     <use style="fill:#65b2c6;stroke:#65b2c6;stroke-width:0.7;" x="209.211425" xlink:href="#me7bb98e19a" y="117.641704"/>
     <use style="fill:#65b2c6;stroke:#65b2c6;stroke-width:0.7;" x="211.577142" xlink:href="#me7bb98e19a" y="117.737273"/>
     <use style="fill:#65b2c6;stroke:#65b2c6;stroke-width:0.7;" x="213.942857" xlink:href="#me7bb98e19a" y="117.842454"/>
     <use style="fill:#65b2c6;stroke:#65b2c6;stroke-width:0.7;" x="216.308568" xlink:href="#me7bb98e19a" y="117.973668"/>
     <use style="fill:#65b2c6;stroke:#65b2c6;stroke-width:0.7;" x="218.674284" xlink:href="#me7bb98e19a" y="118.130882"/>
     <use style="fill:#65b2c6;stroke:#65b2c6;stroke-width:0.7;" x="221.039998" xlink:href="#me7bb98e19a" y="118.292395"/>
     <use style="fill:#65b2c6;stroke:#65b2c6;stroke-width:0.7;" x="223.405713" xlink:href="#me7bb98e19a" y="118.449955"/>
     <use style="fill:#65b2c6;stroke:#65b2c6;stroke-width:0.7;" x="225.771426" xlink:href="#me7bb98e19a" y="118.613513"/>
     <use style="fill:#65b2c6;stroke:#65b2c6;stroke-width:0.7;" x="228.137141" xlink:href="#me7bb98e19a" y="118.787776"/>
     <use style="fill:#65b2c6;stroke:#65b2c6;stroke-width:0.7;" x="230.502859" xlink:href="#me7bb98e19a" y="118.970586"/>
     <use style="fill:#65b2c6;stroke:#65b2c6;stroke-width:0.7;" x="232.868571" xlink:href="#me7bb98e19a" y="119.142809"/>
     <use style="fill:#65b2c6;stroke:#65b2c6;stroke-width:0.7;" x="235.234284" xlink:href="#me7bb98e19a" y="119.212637"/>
     <use style="fill:#65b2c6;stroke:#65b2c6;stroke-width:0.7;" x="237.599999" xlink:href="#me7bb98e19a" y="118.97246"/>
    </g>
   </g>
   <g id="patch_3">
    <path d="M 72 201.6 
L 72 36 
" style="fill:none;stroke:#000000;stroke-linecap:square;stroke-linejoin:miter;stroke-width:0.5;"/>
   </g>
   <g id="patch_4">
    <path d="M 237.6 201.6 
L 237.6 36 
" style="fill:none;stroke:#000000;stroke-linecap:square;stroke-linejoin:miter;stroke-width:0.5;"/>
   </g>
   <g id="patch_5">
    <path d="M 72 201.6 
L 237.6 201.6 
" style="fill:none;stroke:#000000;stroke-linecap:square;stroke-linejoin:miter;stroke-width:0.5;"/>
   </g>
   <g id="patch_6">
    <path d="M 72 36 
L 237.6 36 
" style="fill:none;stroke:#000000;stroke-linecap:square;stroke-linejoin:miter;stroke-width:0.5;"/>
   </g>
  </g>
 </g>
 <defs>
  <clipPath id="pb678bb75ab">
   <rect height="165.6" width="165.6" x="72" y="36"/>
  </clipPath>
 </defs>
</svg>
